<?xml version="1.0" encoding="UTF-8"?>
<svg version="1.1" xmlns="http://www.w3.org/2000/svg" width="5400" height="4400">
<path d="M0 0 C3.03612112 1.82364418 3.54090043 3.11816802 4.65625 6.4453125 C4.97078125 7.3321875 5.2853125 8.2190625 5.609375 9.1328125 C7.63648148 17.55921592 7.55481556 26.21265117 7.55479527 34.83402348 C7.56067818 36.66326217 7.56067818 36.66326217 7.56667995 38.52945518 C7.57656757 41.90752053 7.58209516 45.28554157 7.58577828 48.66361595 C7.59089504 52.35201195 7.60173293 56.04039193 7.61184841 59.72877699 C7.62885592 66.20999094 7.64228287 72.69120463 7.65341115 79.17243123 C7.6700943 88.85861651 7.69272254 98.54478173 7.71662455 108.23095156 C7.7571209 124.6922645 7.7933597 141.1535842 7.82720757 157.61491203 C7.90850988 197.09995094 8.00298351 236.58495997 8.09740323 276.06996934 C8.11640095 284.02465471 8.13509425 291.97934076 8.15369356 299.93402708 C8.31848326 370.27898912 8.54290508 440.62359595 8.80419922 510.96826172 C8.8748493 529.99075117 8.9452731 549.01324138 9.01449585 568.03573608 C9.01879734 569.21755653 9.02309883 570.39937697 9.02753066 571.61701016 C9.16251379 608.77511572 9.27937323 645.9332477 9.38027954 683.09146118 C9.38352036 684.28290036 9.38676118 685.47433954 9.39010021 686.70188294 C9.45884245 712.0107233 9.52455784 737.31957063 9.58693042 762.62842747 C9.61670395 774.70240037 9.64716026 786.77637151 9.67797852 798.8503418 C9.68102307 800.04786703 9.68406762 801.24539227 9.68720444 802.47920615 C9.78846919 842.18172999 9.93698231 881.88393022 10.10622552 921.58621724 C10.28377978 963.29586685 10.41541715 1005.00541593 10.48888797 1046.71538489 C10.49923638 1052.57932141 10.51010405 1058.44325687 10.52128792 1064.30719185 C10.52346849 1065.45929565 10.52564906 1066.61139946 10.52789571 1067.7984155 C10.56393041 1086.13542496 10.64772207 1104.4719012 10.75081702 1122.80864316 C10.85223361 1141.02485486 10.90278779 1159.2406384 10.90095227 1177.45713776 C10.90140089 1188.21465329 10.94046962 1198.97036148 11.03644073 1209.72745802 C11.09668811 1216.91650892 11.10521423 1224.10446366 11.07303911 1231.29369083 C11.05620948 1235.37370953 11.06035901 1239.45037517 11.12833851 1243.52993738 C11.44039212 1263.34334433 8.71275804 1277.91947777 -2.7430551 1294.67189736 C-5.91791529 1299.42968067 -8.70057702 1304.41543092 -11.53125 1309.3828125 C-12.69648572 1311.37453576 -13.86275593 1313.36565533 -15.03125 1315.35546875 C-18.7258831 1321.66101669 -22.38227681 1327.98825686 -26.03125 1334.3203125 C-26.65378662 1335.40046631 -27.27632324 1336.48062012 -27.91772461 1337.59350586 C-29.17951826 1339.78327584 -30.44115534 1341.97313605 -31.70263672 1344.16308594 C-34.83055148 1349.59191192 -37.96233448 1355.01850531 -41.09375 1360.4453125 C-42.34376879 1362.61196833 -43.59376878 1364.778635 -44.84375 1366.9453125 C-57.34375 1388.61197917 -69.84375 1410.27864583 -82.34375 1431.9453125 C-83.27199585 1433.5543042 -83.27199585 1433.5543042 -84.21899414 1435.19580078 C-85.46810518 1437.36088321 -86.71729129 1439.52592232 -87.96655273 1441.69091797 C-91.10577309 1447.13146956 -94.24365563 1452.57278466 -97.37890625 1458.015625 C-103.40122329 1468.46737449 -109.44044337 1478.90830798 -115.53125 1489.3203125 C-120.60650123 1497.99793491 -125.61633767 1506.71136818 -130.59375 1515.4453125 C-136.1337673 1525.16646867 -141.72749809 1534.85425908 -147.37719727 1544.51220703 C-153.53141742 1555.03615875 -159.61744996 1565.59911387 -165.70263672 1576.16308594 C-168.83055148 1581.59191192 -171.96233448 1587.01850531 -175.09375 1592.4453125 C-176.34376879 1594.61196833 -177.59376878 1596.778635 -178.84375 1598.9453125 C-216.34375 1663.9453125 -253.84375 1728.9453125 -291.34375 1793.9453125 C-291.96258057 1795.01797363 -292.58141113 1796.09063477 -293.21899414 1797.19580078 C-294.46810518 1799.36088321 -295.71729129 1801.52592232 -296.96655273 1803.69091797 C-300.10577309 1809.13146956 -303.24365563 1814.57278466 -306.37890625 1820.015625 C-312.40122329 1830.46737449 -318.44044337 1840.90830798 -324.53125 1851.3203125 C-329.60650123 1859.99793491 -334.61633767 1868.71136818 -339.59375 1877.4453125 C-345.1337673 1887.16646867 -350.72749809 1896.85425908 -356.37719727 1906.51220703 C-362.53141742 1917.03615875 -368.61744996 1927.59911387 -374.70263672 1938.16308594 C-377.83055148 1943.59191192 -380.96233448 1949.01850531 -384.09375 1954.4453125 C-385.34376879 1956.61196833 -386.59376878 1958.778635 -387.84375 1960.9453125 C-425.34375 2025.9453125 -462.84375 2090.9453125 -500.34375 2155.9453125 C-500.96258057 2157.01797363 -501.58141113 2158.09063477 -502.21899414 2159.19580078 C-503.46810518 2161.36088321 -504.71729129 2163.52592232 -505.96655273 2165.69091797 C-509.10577309 2171.13146956 -512.24365563 2176.57278466 -515.37890625 2182.015625 C-521.40122329 2192.46737449 -527.44044337 2202.90830798 -533.53125 2213.3203125 C-538.60650123 2221.99793491 -543.61633767 2230.71136818 -548.59375 2239.4453125 C-554.1337673 2249.16646867 -559.72749809 2258.85425908 -565.37719727 2268.51220703 C-571.53141742 2279.03615875 -577.61744996 2289.59911387 -583.70263672 2300.16308594 C-586.83055148 2305.59191192 -589.96233448 2311.01850531 -593.09375 2316.4453125 C-594.34376879 2318.61196833 -595.59376878 2320.778635 -596.84375 2322.9453125 C-634.34375 2387.9453125 -671.84375 2452.9453125 -709.34375 2517.9453125 C-709.96258057 2519.01797363 -710.58141113 2520.09063477 -711.21899414 2521.19580078 C-712.46810518 2523.36088321 -713.71729129 2525.52592232 -714.96655273 2527.69091797 C-718.10577309 2533.13146956 -721.24365563 2538.57278466 -724.37890625 2544.015625 C-730.40122329 2554.46737449 -736.44044337 2564.90830798 -742.53125 2575.3203125 C-747.60650123 2583.99793491 -752.61633767 2592.71136818 -757.59375 2601.4453125 C-763.1337673 2611.16646867 -768.72749809 2620.85425908 -774.37719727 2630.51220703 C-780.53141742 2641.03615875 -786.61744996 2651.59911387 -792.70263672 2662.16308594 C-795.83055148 2667.59191192 -798.96233448 2673.01850531 -802.09375 2678.4453125 C-803.34376879 2680.61196833 -804.59376878 2682.778635 -805.84375 2684.9453125 C-843.34375 2749.9453125 -880.84375 2814.9453125 -918.34375 2879.9453125 C-918.96258057 2881.01797363 -919.58141113 2882.09063477 -920.21899414 2883.19580078 C-921.46810518 2885.36088321 -922.71729129 2887.52592232 -923.96655273 2889.69091797 C-927.10577309 2895.13146956 -930.24365563 2900.57278466 -933.37890625 2906.015625 C-939.40122329 2916.46737449 -945.44044337 2926.90830798 -951.53125 2937.3203125 C-956.60650123 2945.99793491 -961.61633767 2954.71136818 -966.59375 2963.4453125 C-972.1337673 2973.16646867 -977.72749809 2982.85425908 -983.37719727 2992.51220703 C-989.53141742 3003.03615875 -995.61744996 3013.59911387 -1001.70263672 3024.16308594 C-1004.83055148 3029.59191192 -1007.96233448 3035.01850531 -1011.09375 3040.4453125 C-1012.34376879 3042.61196833 -1013.59376878 3044.778635 -1014.84375 3046.9453125 C-1017.34375 3051.27864583 -1019.84375 3055.61197917 -1022.34375 3059.9453125 C-1022.9634668 3061.01950439 -1023.58318359 3062.09369629 -1024.22167969 3063.20043945 C-1025.46185761 3065.35004884 -1026.70209127 3067.49962608 -1027.94238281 3069.64916992 C-1030.8672523 3074.71840462 -1033.79155833 3079.78796186 -1036.71386719 3084.8586731 C-1038.09181938 3087.24957847 -1039.47009172 3089.64029922 -1040.84838867 3092.03100586 C-1041.81915982 3093.71515213 -1042.78946874 3095.39956481 -1043.75976562 3097.08398438 C-1044.34951172 3098.10685547 -1044.93925781 3099.12972656 -1045.546875 3100.18359375 C-1046.06411133 3101.08118408 -1046.58134766 3101.97877441 -1047.11425781 3102.90356445 C-1047.60249023 3103.74234131 -1048.09072266 3104.58111816 -1048.59375 3105.4453125 C-1049.27836304 3106.75097168 -1049.27836304 3106.75097168 -1049.97680664 3108.08300781 C-1051.88366164 3110.86886452 -1053.54828938 3111.91502565 -1056.51171875 3113.50390625 C-1057.50598877 3114.04708496 -1058.50025879 3114.59026367 -1059.5246582 3115.14990234 C-1061.13667114 3116.00769287 -1061.13667114 3116.00769287 -1062.78125 3116.8828125 C-1065.07138236 3118.13215546 -1067.36041951 3119.3835078 -1069.6484375 3120.63671875 C-1070.23146133 3120.95427124 -1070.81448517 3121.27182373 -1071.41517639 3121.59899902 C-1077.14641805 3124.72606156 -1082.78048117 3128.00841761 -1088.40625 3131.3203125 C-1097.0615968 3136.39815408 -1105.75099097 3141.41306543 -1114.46875 3146.3828125 C-1126.79423783 3153.41093151 -1139.09097356 3160.48771851 -1151.37597656 3167.58642578 C-1157.86500096 3171.33509284 -1164.3571195 3175.07839917 -1170.84863281 3178.82275391 C-1176.24123314 3181.93349589 -1181.63312822 3185.04544577 -1187.0234375 3188.16015625 C-1198.83004484 3194.98033887 -1210.65402 3201.7685451 -1222.49847412 3208.52267456 C-1230.55638212 3213.11925473 -1238.58792786 3217.7585541 -1246.59375 3222.4453125 C-1255.18897672 3227.4771194 -1263.8168713 3232.44920322 -1272.46875 3237.3828125 C-1281.56454987 3242.56973676 -1290.65087263 3247.77212756 -1299.71875 3253.0078125 C-1300.78480469 3253.62333984 -1301.85085938 3254.23886719 -1302.94921875 3254.87304688 C-1306.16432523 3256.73001444 -1309.37910378 3258.58754829 -1312.59375 3260.4453125 C-1326.54219368 3268.50620554 -1340.50378888 3276.54240676 -1354.49847412 3284.52267456 C-1362.55638212 3289.11925473 -1370.58792786 3293.7585541 -1378.59375 3298.4453125 C-1387.18897672 3303.4771194 -1395.8168713 3308.44920322 -1404.46875 3313.3828125 C-1413.56454987 3318.56973676 -1422.65087263 3323.77212756 -1431.71875 3329.0078125 C-1432.78480469 3329.62333984 -1433.85085938 3330.23886719 -1434.94921875 3330.87304688 C-1438.16432523 3332.73001444 -1441.37910378 3334.58754829 -1444.59375 3336.4453125 C-1458.54219368 3344.50620554 -1472.50378888 3352.54240676 -1486.49847412 3360.52267456 C-1494.55638212 3365.11925473 -1502.58792786 3369.7585541 -1510.59375 3374.4453125 C-1519.18897672 3379.4771194 -1527.8168713 3384.44920322 -1536.46875 3389.3828125 C-1545.56454987 3394.56973676 -1554.65087263 3399.77212756 -1563.71875 3405.0078125 C-1564.78480469 3405.62333984 -1565.85085938 3406.23886719 -1566.94921875 3406.87304688 C-1570.16432523 3408.73001444 -1573.37910378 3410.58754829 -1576.59375 3412.4453125 C-1590.54219368 3420.50620554 -1604.50378888 3428.54240676 -1618.49847412 3436.52267456 C-1626.55638212 3441.11925473 -1634.58792786 3445.7585541 -1642.59375 3450.4453125 C-1651.18897672 3455.4771194 -1659.8168713 3460.44920322 -1668.46875 3465.3828125 C-1677.56454987 3470.56973676 -1686.65087263 3475.77212756 -1695.71875 3481.0078125 C-1696.78480469 3481.62333984 -1697.85085938 3482.23886719 -1698.94921875 3482.87304688 C-1702.16432523 3484.73001444 -1705.37910378 3486.58754829 -1708.59375 3488.4453125 C-1722.54219368 3496.50620554 -1736.50378888 3504.54240676 -1750.49847412 3512.52267456 C-1758.55638212 3517.11925473 -1766.58792786 3521.7585541 -1774.59375 3526.4453125 C-1783.18897672 3531.4771194 -1791.8168713 3536.44920322 -1800.46875 3541.3828125 C-1809.56454987 3546.56973676 -1818.65087263 3551.77212756 -1827.71875 3557.0078125 C-1828.78480469 3557.62333984 -1829.85085938 3558.23886719 -1830.94921875 3558.87304688 C-1834.16432523 3560.73001444 -1837.37910378 3562.58754829 -1840.59375 3564.4453125 C-1854.54219368 3572.50620554 -1868.50378888 3580.54240676 -1882.49847412 3588.52267456 C-1890.55638212 3593.11925473 -1898.58792786 3597.7585541 -1906.59375 3602.4453125 C-1915.18897672 3607.4771194 -1923.8168713 3612.44920322 -1932.46875 3617.3828125 C-1941.56454987 3622.56973676 -1950.65087263 3627.77212756 -1959.71875 3633.0078125 C-1960.78480469 3633.62333984 -1961.85085938 3634.23886719 -1962.94921875 3634.87304688 C-1966.16432523 3636.73001444 -1969.37910378 3638.58754829 -1972.59375 3640.4453125 C-1986.54219368 3648.50620554 -2000.50378888 3656.54240676 -2014.49847412 3664.52267456 C-2022.55638212 3669.11925473 -2030.58792786 3673.7585541 -2038.59375 3678.4453125 C-2047.18897672 3683.4771194 -2055.8168713 3688.44920322 -2064.46875 3693.3828125 C-2073.5645538 3698.569739 -2082.65042671 3703.77289496 -2091.71875 3709.0078125 C-2092.77537842 3709.61681396 -2093.83200684 3710.22581543 -2094.9206543 3710.85327148 C-2099.86936141 3713.70758337 -2104.81289344 3716.56997282 -2109.74179077 3719.45838928 C-2145.80359075 3740.59018316 -2145.80359075 3740.59018316 -2157.59375 3739.4453125 C-2159.59375 3737.4453125 -2159.59375 3737.4453125 -2159.96875 3734.0078125 C-2159.4818371 3718.88646201 -2148.03221662 3702.93169656 -2140.4765625 3690.29296875 C-2137.05659919 3684.56772362 -2133.73326173 3678.78740984 -2130.40625 3673.0078125 C-2129.76872803 3671.90131348 -2129.13120605 3670.79481445 -2128.47436523 3669.65478516 C-2127.16578157 3667.38343561 -2125.85743385 3665.11195011 -2124.54931641 3662.84033203 C-2121.40042946 3657.3736127 -2118.24691736 3651.90956363 -2115.09375 3646.4453125 C-2113.8437265 3644.27865939 -2112.59372653 3642.11199271 -2111.34375 3639.9453125 C-2108.84375 3635.61197917 -2106.34375 3631.27864583 -2103.84375 3626.9453125 C-2103.22491943 3625.87265137 -2102.60608887 3624.79999023 -2101.96850586 3623.69482422 C-2100.71939482 3621.52974179 -2099.47020871 3619.36470268 -2098.22094727 3617.19970703 C-2095.08172691 3611.75915544 -2091.94384437 3606.31784034 -2088.80859375 3600.875 C-2082.78627671 3590.42325051 -2076.74705663 3579.98231702 -2070.65625 3569.5703125 C-2065.58099877 3560.89269009 -2060.57116233 3552.17925682 -2055.59375 3543.4453125 C-2050.0537327 3533.72415633 -2044.46000191 3524.03636592 -2038.81030273 3514.37841797 C-2032.65608258 3503.85446625 -2026.57005004 3493.29151113 -2020.48486328 3482.72753906 C-2017.35694852 3477.29871308 -2014.22516552 3471.87211969 -2011.09375 3466.4453125 C-2009.84373121 3464.27865667 -2008.59373122 3462.11199 -2007.34375 3459.9453125 C-1951.09375 3362.4453125 -1951.09375 3362.4453125 -1894.84375 3264.9453125 C-1894.22491943 3263.87265137 -1893.60608887 3262.79999023 -1892.96850586 3261.69482422 C-1891.71939482 3259.52974179 -1890.47020871 3257.36470268 -1889.22094727 3255.19970703 C-1886.08172691 3249.75915544 -1882.94384437 3244.31784034 -1879.80859375 3238.875 C-1873.78627671 3228.42325051 -1867.74705663 3217.98231702 -1861.65625 3207.5703125 C-1856.58099877 3198.89269009 -1851.57116233 3190.17925682 -1846.59375 3181.4453125 C-1841.0537327 3171.72415633 -1835.46000191 3162.03636592 -1829.81030273 3152.37841797 C-1823.65608258 3141.85446625 -1817.57005004 3131.29151113 -1811.48486328 3120.72753906 C-1808.35694852 3115.29871308 -1805.22516552 3109.87211969 -1802.09375 3104.4453125 C-1800.84373121 3102.27865667 -1799.59373122 3100.11199 -1798.34375 3097.9453125 C-1742.09375 3000.4453125 -1742.09375 3000.4453125 -1685.84375 2902.9453125 C-1685.22491943 2901.87265137 -1684.60608887 2900.79999023 -1683.96850586 2899.69482422 C-1682.71939482 2897.52974179 -1681.47020871 2895.36470268 -1680.22094727 2893.19970703 C-1677.08172691 2887.75915544 -1673.94384437 2882.31784034 -1670.80859375 2876.875 C-1664.78627671 2866.42325051 -1658.74705663 2855.98231702 -1652.65625 2845.5703125 C-1647.58099877 2836.89269009 -1642.57116233 2828.17925682 -1637.59375 2819.4453125 C-1632.0537327 2809.72415633 -1626.46000191 2800.03636592 -1620.81030273 2790.37841797 C-1614.65608258 2779.85446625 -1608.57005004 2769.29151113 -1602.48486328 2758.72753906 C-1599.35694852 2753.29871308 -1596.22516552 2747.87211969 -1593.09375 2742.4453125 C-1591.84373121 2740.27865667 -1590.59373122 2738.11199 -1589.34375 2735.9453125 C-1551.84375 2670.9453125 -1514.34375 2605.9453125 -1476.84375 2540.9453125 C-1476.22491943 2539.87265137 -1475.60608887 2538.79999023 -1474.96850586 2537.69482422 C-1473.71939482 2535.52974179 -1472.47020871 2533.36470268 -1471.22094727 2531.19970703 C-1468.08172691 2525.75915544 -1464.94384437 2520.31784034 -1461.80859375 2514.875 C-1455.78627671 2504.42325051 -1449.74705663 2493.98231702 -1443.65625 2483.5703125 C-1438.58099877 2474.89269009 -1433.57116233 2466.17925682 -1428.59375 2457.4453125 C-1423.0537327 2447.72415633 -1417.46000191 2438.03636592 -1411.81030273 2428.37841797 C-1405.65608258 2417.85446625 -1399.57005004 2407.29151113 -1393.48486328 2396.72753906 C-1390.35694852 2391.29871308 -1387.22516552 2385.87211969 -1384.09375 2380.4453125 C-1382.84373121 2378.27865667 -1381.59373122 2376.11199 -1380.34375 2373.9453125 C-1324.09375 2276.4453125 -1324.09375 2276.4453125 -1267.84375 2178.9453125 C-1267.22491943 2177.87265137 -1266.60608887 2176.79999023 -1265.96850586 2175.69482422 C-1264.71939482 2173.52974179 -1263.47020871 2171.36470268 -1262.22094727 2169.19970703 C-1259.08172691 2163.75915544 -1255.94384437 2158.31784034 -1252.80859375 2152.875 C-1246.78627671 2142.42325051 -1240.74705663 2131.98231702 -1234.65625 2121.5703125 C-1229.58099877 2112.89269009 -1224.57116233 2104.17925682 -1219.59375 2095.4453125 C-1214.0537327 2085.72415633 -1208.46000191 2076.03636592 -1202.81030273 2066.37841797 C-1196.65608258 2055.85446625 -1190.57005004 2045.29151113 -1184.48486328 2034.72753906 C-1181.35694852 2029.29871308 -1178.22516552 2023.87211969 -1175.09375 2018.4453125 C-1173.84373121 2016.27865667 -1172.59373122 2014.11199 -1171.34375 2011.9453125 C-1133.84375 1946.9453125 -1096.34375 1881.9453125 -1058.84375 1816.9453125 C-1058.22491943 1815.87265137 -1057.60608887 1814.79999023 -1056.96850586 1813.69482422 C-1055.71939482 1811.52974179 -1054.47020871 1809.36470268 -1053.22094727 1807.19970703 C-1050.08172691 1801.75915544 -1046.94384437 1796.31784034 -1043.80859375 1790.875 C-1037.78627671 1780.42325051 -1031.74705663 1769.98231702 -1025.65625 1759.5703125 C-1020.58099877 1750.89269009 -1015.57116233 1742.17925682 -1010.59375 1733.4453125 C-1005.0537327 1723.72415633 -999.46000191 1714.03636592 -993.81030273 1704.37841797 C-987.65608258 1693.85446625 -981.57005004 1683.29151113 -975.48486328 1672.72753906 C-972.35694852 1667.29871308 -969.22516552 1661.87211969 -966.09375 1656.4453125 C-964.84373121 1654.27865667 -963.59373122 1652.11199 -962.34375 1649.9453125 C-924.84375 1584.9453125 -887.34375 1519.9453125 -849.84375 1454.9453125 C-849.22491943 1453.87265137 -848.60608887 1452.79999023 -847.96850586 1451.69482422 C-846.71939482 1449.52974179 -845.47020871 1447.36470268 -844.22094727 1445.19970703 C-841.08172691 1439.75915544 -837.94384437 1434.31784034 -834.80859375 1428.875 C-828.78627671 1418.42325051 -822.74705663 1407.98231702 -816.65625 1397.5703125 C-811.58099877 1388.89269009 -806.57116233 1380.17925682 -801.59375 1371.4453125 C-796.0537327 1361.72415633 -790.46000191 1352.03636592 -784.81030273 1342.37841797 C-778.65608258 1331.85446625 -772.57005004 1321.29151113 -766.48486328 1310.72753906 C-763.35694852 1305.29871308 -760.22516552 1299.87211969 -757.09375 1294.4453125 C-755.84373121 1292.27865667 -754.59373122 1290.11199 -753.34375 1287.9453125 C-715.84375 1222.9453125 -678.34375 1157.9453125 -640.84375 1092.9453125 C-640.22491943 1091.87265137 -639.60608887 1090.79999023 -638.96850586 1089.69482422 C-637.71939482 1087.52974179 -636.47020871 1085.36470268 -635.22094727 1083.19970703 C-632.08172691 1077.75915544 -628.94384437 1072.31784034 -625.80859375 1066.875 C-619.78627671 1056.42325051 -613.74705663 1045.98231702 -607.65625 1035.5703125 C-602.58099877 1026.89269009 -597.57116233 1018.17925682 -592.59375 1009.4453125 C-587.0537327 999.72415633 -581.46000191 990.03636592 -575.81030273 980.37841797 C-569.65608258 969.85446625 -563.57005004 959.29151113 -557.48486328 948.72753906 C-554.35694852 943.29871308 -551.22516552 937.87211969 -548.09375 932.4453125 C-546.84373121 930.27865667 -545.59373122 928.11199 -544.34375 925.9453125 C-506.84375 860.9453125 -469.34375 795.9453125 -431.84375 730.9453125 C-431.22491943 729.87265137 -430.60608887 728.79999023 -429.96850586 727.69482422 C-428.71939482 725.52974179 -427.47020871 723.36470268 -426.22094727 721.19970703 C-423.08172691 715.75915544 -419.94384437 710.31784034 -416.80859375 704.875 C-410.78627671 694.42325051 -404.74705663 683.98231702 -398.65625 673.5703125 C-393.58099877 664.89269009 -388.57116233 656.17925682 -383.59375 647.4453125 C-378.0537327 637.72415633 -372.46000191 628.03636592 -366.81030273 618.37841797 C-360.65608258 607.85446625 -354.57005004 597.29151113 -348.48486328 586.72753906 C-345.35694852 581.29871308 -342.22516552 575.87211969 -339.09375 570.4453125 C-337.84373121 568.27865667 -336.59373122 566.11199 -335.34375 563.9453125 C-297.84375 498.9453125 -260.34375 433.9453125 -222.84375 368.9453125 C-222.22491943 367.87265137 -221.60608887 366.79999023 -220.96850586 365.69482422 C-219.71939482 363.52974179 -218.47020871 361.36470268 -217.22094727 359.19970703 C-214.08172691 353.75915544 -210.94384437 348.31784034 -207.80859375 342.875 C-201.78627671 332.42325051 -195.74705663 321.98231702 -189.65625 311.5703125 C-184.58099877 302.89269009 -179.57116233 294.17925682 -174.59375 285.4453125 C-169.0537327 275.72415633 -163.46000191 266.03636592 -157.81030273 256.37841797 C-151.65608258 245.85446625 -145.57005004 235.29151113 -139.48486328 224.72753906 C-136.35694852 219.29871308 -133.22516552 213.87211969 -130.09375 208.4453125 C-128.84373121 206.27865667 -127.59373122 204.11199 -126.34375 201.9453125 C-103.84375 162.9453125 -81.34375 123.9453125 -58.84375 84.9453125 C-58.22483887 83.87249023 -57.60592773 82.79966797 -56.96826172 81.69433594 C-55.72003966 79.53083774 -54.47166761 77.36742607 -53.22314453 75.20410156 C-50.06969744 69.73966233 -46.91898904 64.27367605 -43.7734375 58.8046875 C-40.65693286 53.38769672 -37.53221388 47.97553128 -34.40039062 42.56738281 C-33.20422057 40.50027164 -32.0101788 38.43192732 -30.81835938 36.36230469 C-8.77336668 -1.87623203 -8.77336668 -1.87623203 0 0 Z " fill="#4287f5" transform="translate(2661.59375,189.5546875)"/>
<path d="M0 0 C1.88859964 -0.0120137 1.88859964 -0.0120137 3.81535281 -0.02427009 C5.21383978 -0.01800349 6.61232555 -0.01146463 8.01081012 -0.00468399 C9.50372043 -0.00841191 10.99662793 -0.01345383 12.48952986 -0.01969107 C16.61847539 -0.03308986 20.74722002 -0.0276878 24.87617116 -0.01938572 C29.37487093 -0.01363519 33.87353088 -0.02525394 38.37221981 -0.03467609 C46.29602712 -0.0488447 54.21977822 -0.05176359 62.14359613 -0.04749106 C74.0060163 -0.04114181 85.86837803 -0.0519476 97.73078919 -0.06613538 C117.94493443 -0.08978785 138.1590638 -0.09902314 158.3732218 -0.10047318 C178.86835895 -0.10197881 199.3634783 -0.10990389 219.8586096 -0.12569596 C221.15143983 -0.12668636 222.44427007 -0.12767676 223.77627698 -0.12869717 C229.04149509 -0.13274703 234.30671318 -0.13683502 239.57193122 -0.14097349 C297.50942206 -0.18643166 355.44690823 -0.20680447 413.3844141 -0.22023938 C414.11739312 -0.22040945 414.85037214 -0.22057952 415.60556264 -0.22075474 C419.31310814 -0.22161431 423.02065364 -0.22246941 426.72819915 -0.2233171 C457.78464673 -0.23044113 488.84109237 -0.2415699 519.89753846 -0.25342839 C534.76820899 -0.2591061 549.63887958 -0.26459159 564.5095502 -0.27003099 C565.2491261 -0.27030156 565.988702 -0.27057213 566.75068929 -0.2708509 C602.34641733 -0.28385993 637.94214572 -0.29564485 673.53787462 -0.30603196 C674.67688043 -0.30636438 674.67688043 -0.30636438 675.83889645 -0.30670352 C724.23506043 -0.32078961 772.63122378 -0.32925792 821.02738951 -0.3341923 C824.99560439 -0.33459903 828.96381928 -0.33501612 832.93203416 -0.33543292 C839.29408444 -0.33610034 845.65613471 -0.33676445 852.01818499 -0.33742456 C852.80655467 -0.33750637 853.59492435 -0.33758818 854.40718402 -0.33767247 C856.00054458 -0.33783781 857.59390513 -0.33800314 859.18726569 -0.33816847 C870.36430603 -0.33932832 881.54134636 -0.34049215 892.71838669 -0.34167586 C896.71777341 -0.34209918 900.71716014 -0.3425194 904.71654686 -0.34293255 C980.2497497 -0.35074499 1055.78293406 -0.36673335 1131.31612341 -0.41457917 C1132.11123387 -0.41508255 1132.90634433 -0.41558593 1133.72554905 -0.41610456 C1158.56813925 -0.43185656 1183.41072879 -0.44857965 1208.25331823 -0.46548249 C1233.74338864 -0.48282536 1259.23345913 -0.50001698 1284.72353021 -0.51635148 C1285.90080393 -0.51710661 1285.90080393 -0.51710661 1287.10186096 -0.517877 C1336.25497437 -0.54935584 1385.40808264 -0.56994118 1434.56120531 -0.57895066 C1435.32036634 -0.57909109 1436.07952738 -0.57923153 1436.86169329 -0.57937622 C1470.2023189 -0.58552818 1503.54294437 -0.58926044 1536.88357052 -0.59031439 C1550.29667996 -0.59074419 1563.70978937 -0.59146018 1577.12289879 -0.59230655 C1579.34687133 -0.59244315 1581.57084387 -0.59256811 1583.79481642 -0.59269089 C1617.81346288 -0.59462923 1651.8320882 -0.60350339 1685.85072295 -0.63307263 C1686.95117777 -0.6340283 1686.95117777 -0.6340283 1688.07386399 -0.63500328 C1699.87538075 -0.64528966 1711.676897 -0.65612856 1723.4784132 -0.66703249 C1756.98252255 -0.69797325 1790.48660591 -0.72431656 1823.990732 -0.71849848 C1825.01057058 -0.71832416 1825.01057058 -0.71832416 1826.05101196 -0.71814631 C1840.22200995 -0.715634 1854.39300636 -0.71101976 1868.56400274 -0.70380473 C1875.1425961 -0.70045849 1881.72118956 -0.69742653 1888.29978315 -0.69458176 C1889.58939498 -0.69401186 1890.87900681 -0.69344196 1892.20769779 -0.69285478 C1912.64493889 -0.68464706 1933.08203129 -0.70670137 1953.51924005 -0.74130187 C1973.60532918 -0.77468052 1993.69120768 -0.77606207 2013.7773 -0.74319131 C2025.559594 -0.72487426 2037.3412531 -0.73125863 2049.12348755 -0.77394723 C2056.94609974 -0.79983603 2064.76824415 -0.79314783 2072.59082728 -0.75985109 C2077.02716644 -0.74188321 2081.46226005 -0.73782327 2085.89851699 -0.77390568 C2118.73683296 -1.02393256 2118.73683296 -1.02393256 2131.80190222 9.37826751 C2133.75028145 10.54644525 2135.71381644 11.69026552 2137.70033972 12.79233001 C2139.52649878 13.8615532 2141.35201055 14.93188263 2143.17690222 16.00326751 C2154.92973949 22.88024774 2166.72033368 29.69035478 2178.51967565 36.48715423 C2185.03061478 40.23854775 2191.53853415 43.99517746 2198.0470194 47.75082611 C2203.48775558 50.89008997 2208.92921698 54.02808248 2214.37221472 57.16342376 C2225.85639042 63.78049643 2237.32387115 70.42460728 2248.76772253 77.11117767 C2260.41849406 83.91414374 2272.11093966 90.64468937 2283.80190222 97.37826751 C2297.47744536 105.2548934 2311.14151179 113.14946843 2324.76772253 121.11117767 C2336.41849406 127.91414374 2348.11093966 134.64468937 2359.80190222 141.37826751 C2373.47744536 149.2548934 2387.14151179 157.14946843 2400.76772253 165.11117767 C2412.41849406 171.91414374 2424.11093966 178.64468937 2435.80190222 185.37826751 C2449.47744536 193.2548934 2463.14151179 201.14946843 2476.76772253 209.11117767 C2488.41849406 215.91414374 2500.11093966 222.64468937 2511.80190222 229.37826751 C2525.47744536 237.2548934 2539.14151179 245.14946843 2552.76772253 253.11117767 C2564.41849406 259.91414374 2576.11093966 266.64468937 2587.80190222 273.37826751 C2601.47744536 281.2548934 2615.14151179 289.14946843 2628.76772253 297.11117767 C2640.41849406 303.91414374 2652.11093966 310.64468937 2663.80190222 317.37826751 C2677.47744536 325.2548934 2691.14151179 333.14946843 2704.76772253 341.11117767 C2716.41849406 347.91414374 2728.11093966 354.64468937 2739.80190222 361.37826751 C2753.47744536 369.2548934 2767.14151179 377.14946843 2780.76772253 385.11117767 C2792.41849406 391.91414374 2804.11093966 398.64468937 2815.80190222 405.37826751 C2829.47744536 413.2548934 2843.14151179 421.14946843 2856.76772253 429.11117767 C2868.41849406 435.91414374 2880.11093966 442.64468937 2891.80190222 449.37826751 C2905.47744536 457.2548934 2919.14151179 465.14946843 2932.76772253 473.11117767 C2944.41849406 479.91414374 2956.11093966 486.64468937 2967.80190222 493.37826751 C2981.47744536 501.2548934 2995.14151179 509.14946843 3008.76772253 517.11117767 C3020.41849406 523.91414374 3032.11093966 530.64468937 3043.80190222 537.37826751 C3057.47744536 545.2548934 3071.14151179 553.14946843 3084.76772253 561.11117767 C3096.41849406 567.91414374 3108.11093966 574.64468937 3119.80190222 581.37826751 C3133.5152681 589.27667795 3147.22831008 597.17511799 3160.88417761 605.17270111 C3165.94450943 608.13568333 3171.01554175 611.07671773 3176.11049597 613.97983001 C3185.13492651 619.13994594 3194.11614119 624.28618511 3202.55190222 630.37826751 C3203.43664221 631.00898162 3203.43664221 631.00898162 3204.33925573 631.65243743 C3208.04951816 634.43499571 3210.51845229 637.34929577 3212.80190222 641.37826751 C3213.05190222 644.25326751 3213.05190222 644.25326751 3212.80190222 646.37826751 C3199.86786899 655.84219426 3178.84312957 652.66370466 3163.73499835 652.6321775 C3160.00012237 652.62663596 3156.2652615 652.63283313 3152.5303868 652.63746473 C3145.95863281 652.64401539 3139.38691226 652.64315663 3132.81515797 652.63744199 C3122.94846008 652.62890445 3113.08178861 652.63200708 3103.21508966 652.63730606 C3086.32164891 652.64604039 3069.42822038 652.6452653 3052.53477893 652.63939144 C3035.32040159 652.63344609 3018.10603205 652.63190235 3000.891654 652.63563986 C2999.25480271 652.63599113 2999.25480271 652.63599113 2997.58488373 652.6363495 C2992.01323115 652.63756451 2986.4415786 652.63884898 2980.86992604 652.64015672 C2940.16171905 652.64955866 2899.45351673 652.64906443 2858.74530927 652.64359497 C2817.47657936 652.63808003 2776.20785271 652.63691123 2734.9391226 652.64106964 C2733.63825211 652.64119866 2732.33738162 652.64132769 2730.99709082 652.64146063 C2719.07568022 652.64264368 2707.15426963 652.64387148 2695.23285904 652.64515305 C2665.33676286 652.64836172 2635.44066665 652.65087356 2605.54457037 652.65291379 C2604.17451716 652.6530076 2602.80446395 652.6531014 2601.39289398 652.65319804 C2533.82947704 652.65775745 2466.26606069 652.65468247 2398.70264379 652.65085815 C2395.74238891 652.65069088 2392.78213403 652.65052361 2389.82187915 652.65035636 C2388.35477111 652.65027345 2386.88766308 652.65019053 2385.37609722 652.65010511 C2366.02933581 652.6490121 2346.68257439 652.64793889 2327.33581297 652.64691852 C2325.85701385 652.6468402 2324.37821474 652.64676188 2322.85460353 652.64668118 C2254.35967855 652.64308046 2185.86475386 652.64393505 2117.36982884 652.64577943 C2109.90005361 652.64597903 2102.43027838 652.64617002 2094.96050315 652.64636198 C2072.44630575 652.64694315 2049.93210836 652.64753703 2027.41791096 652.64815718 C1958.76054073 652.65004635 1890.10317049 652.65124675 1821.44580023 652.65185378 C1819.15262876 652.65187439 1819.15262876 652.65187439 1816.8131306 652.65189541 C1717.78854161 652.65277305 1618.76395296 652.65057059 1519.73936407 652.64615463 C1518.15824561 652.64608439 1516.57712715 652.64601415 1514.948096 652.64594179 C1461.98658563 652.64358901 1409.02507527 652.64107691 1356.06356491 652.63854853 C1195.9004257 652.63090751 1035.73728766 652.62672036 749.70860246 652.63877919 C696.76054843 652.64130557 643.8124944 652.64380257 590.86444036 652.64615463 C588.49343287 652.64626036 588.49343287 652.64626036 586.07452624 652.64636823 C487.10235218 652.65077809 388.13017836 652.6527431 289.15800421 652.65185378 C287.62972748 652.65184027 286.10145075 652.65182676 284.5268626 652.65181284 C215.90776815 652.65119943 147.28867372 652.64992288 78.66957928 652.64803278 C56.16524053 652.64741367 33.66090178 652.646825 11.15656303 652.64624668 C3.691094 652.6460547 -3.77437503 652.64585999 -11.23984406 652.64565896 C-79.73723237 652.64382015 -148.23462028 652.64329068 -216.73200854 652.64691852 C-218.9488041 652.64703544 -218.9488041 652.64703544 -221.21038341 652.64715471 C-240.54628052 652.64817834 -259.88217762 652.64926362 -279.21807472 652.65035636 C-280.68402882 652.65043918 -282.14998292 652.65052201 -283.66035987 652.65060735 C-286.61793373 652.65077447 -289.5755076 652.65094173 -292.53308146 652.65110914 C-360.00230984 652.65491818 -427.47153753 652.65753317 -494.94076594 652.65291379 C-496.30901985 652.65282042 -497.67727376 652.65272704 -499.08698991 652.65263084 C-528.93377447 652.6505708 -558.78055895 652.6479318 -588.6273434 652.64472323 C-600.53000165 652.6434514 -612.43265991 652.64225021 -624.33531817 652.64106964 C-625.63371473 652.6409388 -626.93211129 652.64080797 -628.2698532 652.64067318 C-669.48791434 652.63655267 -710.70597212 652.63856521 -751.92403301 652.64410318 C-792.49372131 652.64952692 -833.06340434 652.6488887 -873.63309206 652.63936645 C-879.18467788 652.6380641 -884.73626372 652.63683124 -890.28784956 652.63563986 C-891.37471785 652.63540389 -892.46158613 652.63516791 -893.58138982 652.63492478 C-910.7439669 652.6313803 -927.90653593 652.63451513 -945.06911208 652.64048257 C-961.84571007 652.64617937 -978.62229492 652.64481894 -995.39889161 652.63580896 C-1005.19322885 652.63076139 -1014.98752895 652.63116034 -1024.78186401 652.63967724 C-1031.26851554 652.64477454 -1037.75513855 652.64263772 -1044.24178704 652.63459366 C-1047.91307408 652.63024272 -1051.58428727 652.62894947 -1055.25557058 652.63661058 C-1092.85716093 652.70945334 -1092.85716093 652.70945334 -1103.19809778 646.37826751 C-1102.77329539 640.96203699 -1101.89463752 638.33380048 -1098.19809778 634.37826751 C-1095.63755201 632.27905755 -1092.94123308 630.41763663 -1090.19809778 628.56576751 C-1089.37704554 628.00808685 -1088.55599329 627.45040618 -1087.71006067 626.87582611 C-1077.6546778 620.17715173 -1067.10863491 614.31098726 -1056.5776449 608.40455841 C-1050.3389636 604.9040555 -1044.14124476 601.33364417 -1037.94809778 597.75326751 C-1036.87873987 597.13596771 -1035.80938196 596.5186679 -1034.70761927 595.88266204 C-1026.53474812 591.161166 -1018.38133187 586.40672667 -1010.23178919 581.64511321 C-997.48803639 574.20377256 -984.69486728 566.84806858 -971.90708216 559.4827597 C-960.32128012 552.8087044 -948.74256426 546.12362667 -937.19809778 539.37826751 C-923.4675459 531.3555924 -909.68731812 523.41968492 -895.90708216 515.4827597 C-884.32128012 508.8087044 -872.74256426 502.12362667 -861.19809778 495.37826751 C-849.65080262 488.63125557 -838.06907751 481.94487434 -826.48032435 475.26938079 C-821.0514984 472.14146605 -815.62487772 469.0097302 -810.19809778 465.87826751 C-803.67576504 462.11462832 -797.15296016 458.35182129 -790.62778528 454.59311126 C-780.13577685 448.54771592 -769.65328102 442.48716532 -759.19809778 436.37826751 C-745.4675459 428.3555924 -731.68731812 420.41968492 -717.90708216 412.4827597 C-706.32128012 405.8087044 -694.74256426 399.12362667 -683.19809778 392.37826751 C-669.4675459 384.3555924 -655.68731812 376.41968492 -641.90708216 368.4827597 C-630.32128012 361.8087044 -618.74256426 355.12362667 -607.19809778 348.37826751 C-593.4675459 340.3555924 -579.68731812 332.41968492 -565.90708216 324.4827597 C-554.32128012 317.8087044 -542.74256426 311.12362667 -531.19809778 304.37826751 C-517.4675459 296.3555924 -503.68731812 288.41968492 -489.90708216 280.4827597 C-478.32128012 273.8087044 -466.74256426 267.12362667 -455.19809778 260.37826751 C-441.4675459 252.3555924 -427.68731812 244.41968492 -413.90708216 236.4827597 C-402.32128012 229.8087044 -390.74256426 223.12362667 -379.19809778 216.37826751 C-365.4675459 208.3555924 -351.68731812 200.41968492 -337.90708216 192.4827597 C-326.32128012 185.8087044 -314.74256426 179.12362667 -303.19809778 172.37826751 C-289.4675459 164.3555924 -275.68731812 156.41968492 -261.90708216 148.4827597 C-250.32128012 141.8087044 -238.74256426 135.12362667 -227.19809778 128.37826751 C-213.4675459 120.3555924 -199.68731812 112.41968492 -185.90708216 104.4827597 C-174.32128012 97.8087044 -162.74256426 91.12362667 -151.19809778 84.37826751 C-137.4675459 76.3555924 -123.68731812 68.41968492 -109.90708216 60.4827597 C-98.32128012 53.8087044 -86.74256426 47.12362667 -75.19809778 40.37826751 C-62.56058091 32.99424588 -49.88094391 25.68407136 -37.19809778 18.37826751 C-33.00178468 15.96043089 -28.80589495 13.54186089 -24.61039026 11.12262176 C-22.92711556 10.15220279 -21.24351891 9.18234232 -19.55991419 8.21249603 C-18.53688196 7.62266937 -17.51384974 7.03284271 -16.45981653 6.42514251 C-15.5622262 5.90790618 -14.66463587 5.39066986 -13.73984583 4.8577597 C-11.20377695 3.42536827 -11.20377695 3.42536827 -8.92661964 1.80944097 C-5.69615081 0.1149846 -3.6344887 0.00213002 0 0 Z " fill="#4287f5" transform="translate(1652.1980977840722,3347.6217324882746)"/>
<path d="M0 0 C6.43550225 3.29258255 10.21040469 8.00601466 14.0625 13.9375 C14.8217981 15.09185547 14.8217981 15.09185547 15.59643555 16.26953125 C22.04542202 26.24556437 27.81394292 36.6322096 33.64006042 46.97883606 C37.13273066 53.17797899 40.68749408 59.34075869 44.25 65.5 C45.49093169 67.64841077 46.73181717 69.79684824 47.97265625 71.9453125 C48.58512207 73.00524414 49.19758789 74.06517578 49.82861328 75.15722656 C52.95074605 80.56170645 56.06891204 85.96847412 59.1875 91.375 C60.43748122 93.5416775 61.68748121 95.70834417 62.9375 97.875 C70.4375 110.875 70.4375 110.875 72.31274414 114.12548828 C73.56185518 116.29057071 74.81104129 118.45560982 76.06030273 120.62060547 C79.19952309 126.06115706 82.33740563 131.50247216 85.47265625 136.9453125 C91.49497329 147.39706199 97.53419337 157.83799548 103.625 168.25 C109.04671178 177.51999777 114.38954915 186.83331752 119.70672607 196.16345215 C124.90795129 205.2878284 130.16777878 214.37632774 135.47094727 223.44189453 C141.62516742 233.96584625 147.71119996 244.52880137 153.79638672 255.09277344 C156.92430148 260.52159942 160.05608448 265.94819281 163.1875 271.375 C164.43751879 273.54165583 165.68751878 275.7083225 166.9375 277.875 C167.55625 278.9475 168.175 280.02 168.8125 281.125 C279.4375 472.875 279.4375 472.875 281.31274414 476.12548828 C282.56185518 478.29057071 283.81104129 480.45560982 285.06030273 482.62060547 C288.19952309 488.06115706 291.33740563 493.50247216 294.47265625 498.9453125 C300.49497329 509.39706199 306.53419337 519.83799548 312.625 530.25 C318.04671178 539.51999777 323.38954915 548.83331752 328.70672607 558.16345215 C333.90795129 567.2878284 339.16777878 576.37632774 344.47094727 585.44189453 C350.62516742 595.96584625 356.71119996 606.52880137 362.79638672 617.09277344 C365.92430148 622.52159942 369.05608448 627.94819281 372.1875 633.375 C373.43751879 635.54165583 374.68751878 637.7083225 375.9375 639.875 C376.55625 640.9475 377.175 642.02 377.8125 643.125 C488.43749999 834.87499999 488.43749999 834.87499999 490.31274414 838.12548828 C491.56185518 840.29057071 492.81104129 842.45560982 494.06030273 844.62060547 C497.19952309 850.06115706 500.33740563 855.50247216 503.47265625 860.9453125 C509.49497329 871.39706199 515.53419337 881.83799548 521.625 892.25 C527.04671178 901.51999777 532.38954915 910.83331752 537.70672607 920.16345215 C542.90795129 929.2878284 548.16777878 938.37632774 553.47094727 947.44189453 C559.62516742 957.96584625 565.71119996 968.52880137 571.79638672 979.09277344 C574.92430148 984.52159942 578.05608448 989.94819281 581.1875 995.375 C582.43751879 997.54165583 583.68751878 999.7083225 584.9375 1001.875 C585.865625 1003.48375 585.865625 1003.48375 586.8125 1005.125 C697.43750001 1196.87500002 697.43750001 1196.87500002 699.31274414 1200.12548828 C700.56185518 1202.29057071 701.81104129 1204.45560982 703.06030273 1206.62060547 C706.19952309 1212.06115706 709.33740563 1217.50247216 712.47265625 1222.9453125 C718.49497329 1233.39706199 724.53419337 1243.83799548 730.625 1254.25 C736.04671178 1263.51999777 741.38954915 1272.83331752 746.70672607 1282.16345215 C751.90795129 1291.2878284 757.16777878 1300.37632774 762.47094727 1309.44189453 C768.62516742 1319.96584625 774.71119996 1330.52880137 780.79638672 1341.09277344 C783.92430148 1346.52159942 787.05608448 1351.94819281 790.1875 1357.375 C791.43751879 1359.54165583 792.68751878 1361.7083225 793.9375 1363.875 C794.865625 1365.48375 794.865625 1365.48375 795.8125 1367.125 C906.43750001 1558.87500002 906.43750001 1558.87500002 908.31274414 1562.12548828 C909.56185518 1564.29057071 910.81104129 1566.45560982 912.06030273 1568.62060547 C915.19952309 1574.06115706 918.33740563 1579.50247216 921.47265625 1584.9453125 C927.49497329 1595.39706199 933.53419337 1605.83799548 939.625 1616.25 C945.04671178 1625.51999777 950.38954915 1634.83331752 955.70672607 1644.16345215 C960.90795129 1653.2878284 966.16777878 1662.37632774 971.47094727 1671.44189453 C977.62516742 1681.96584625 983.71119996 1692.52880137 989.79638672 1703.09277344 C992.92430148 1708.52159942 996.05608448 1713.94819281 999.1875 1719.375 C1000.43751879 1721.54165583 1001.68751878 1723.7083225 1002.9375 1725.875 C1003.865625 1727.48375 1003.865625 1727.48375 1004.8125 1729.125 C1115.43750001 1920.87500002 1115.43750001 1920.87500002 1117.31274414 1924.12548828 C1118.56185518 1926.29057071 1119.81104129 1928.45560982 1121.06030273 1930.62060547 C1124.19952309 1936.06115706 1127.33740563 1941.50247216 1130.47265625 1946.9453125 C1136.49497329 1957.39706199 1142.53419337 1967.83799548 1148.625 1978.25 C1154.04671178 1987.51999777 1159.38954915 1996.83331752 1164.70672607 2006.16345215 C1169.90795129 2015.2878284 1175.16777878 2024.37632774 1180.47094727 2033.44189453 C1186.62516742 2043.96584625 1192.71119996 2054.52880137 1198.79638672 2065.09277344 C1201.92430148 2070.52159942 1205.05608448 2075.94819281 1208.1875 2081.375 C1209.43751879 2083.54165583 1210.68751878 2085.7083225 1211.9375 2087.875 C1212.55625 2088.9475 1213.175 2090.02 1213.8125 2091.125 C1324.43750003 2282.87500005 1324.43750003 2282.87500005 1326.31274414 2286.12548828 C1327.56185518 2288.29057071 1328.81104129 2290.45560982 1330.06030273 2292.62060547 C1333.19952309 2298.06115706 1336.33740563 2303.50247216 1339.47265625 2308.9453125 C1345.49497329 2319.39706199 1351.53419337 2329.83799548 1357.625 2340.25 C1363.04671178 2349.51999777 1368.38954915 2358.83331752 1373.70672607 2368.16345215 C1378.90795129 2377.2878284 1384.16777878 2386.37632774 1389.47094727 2395.44189453 C1395.62516742 2405.96584625 1401.71119996 2416.52880137 1407.79638672 2427.09277344 C1410.92430148 2432.52159942 1414.05608448 2437.94819281 1417.1875 2443.375 C1418.43751879 2445.54165583 1419.68751878 2447.7083225 1420.9375 2449.875 C1421.55625 2450.9475 1422.175 2452.02 1422.8125 2453.125 C1533.43749999 2644.87499999 1533.43749999 2644.87499999 1535.31274414 2648.12548828 C1536.56185518 2650.29057071 1537.81104129 2652.45560982 1539.06030273 2654.62060547 C1542.19952309 2660.06115706 1545.33740563 2665.50247216 1548.47265625 2670.9453125 C1554.49497329 2681.39706199 1560.53419337 2691.83799548 1566.625 2702.25 C1572.04671178 2711.51999777 1577.38954915 2720.83331752 1582.70672607 2730.16345215 C1587.90795129 2739.2878284 1593.16777878 2748.37632774 1598.47094727 2757.44189453 C1604.62516742 2767.96584625 1610.71119996 2778.52880137 1616.79638672 2789.09277344 C1619.92430148 2794.52159942 1623.05608448 2799.94819281 1626.1875 2805.375 C1627.43751879 2807.54165583 1628.68751878 2809.7083225 1629.9375 2811.875 C1630.55625 2812.9475 1631.175 2814.02 1631.8125 2815.125 C1742.4375 3006.87499999 1742.4375 3006.87499999 1744.31274414 3010.12548828 C1745.56185518 3012.29057071 1746.81104129 3014.45560982 1748.06030273 3016.62060547 C1751.19952309 3022.06115706 1754.33740563 3027.50247216 1757.47265625 3032.9453125 C1763.49497329 3043.39706199 1769.53419337 3053.83799548 1775.625 3064.25 C1781.04671178 3073.51999777 1786.38954915 3082.83331752 1791.70672607 3092.16345215 C1796.90795129 3101.2878284 1802.16777878 3110.37632774 1807.47094727 3119.44189453 C1813.62516742 3129.96584625 1819.71119996 3140.52880137 1825.79638672 3151.09277344 C1828.92430148 3156.52159942 1832.05608448 3161.94819281 1835.1875 3167.375 C1836.43751879 3169.54165583 1837.68751878 3171.7083225 1838.9375 3173.875 C1839.55625 3174.9475 1840.175 3176.02 1840.8125 3177.125 C1951.4375 3368.87499999 1951.4375 3368.87499999 1953.31274414 3372.12548828 C1954.56185518 3374.29057071 1955.81104129 3376.45560982 1957.06030273 3378.62060547 C1960.19952309 3384.06115706 1963.33740563 3389.50247216 1966.47265625 3394.9453125 C1972.49497329 3405.39706199 1978.53419337 3415.83799548 1984.625 3426.25 C1990.04671178 3435.51999777 1995.38954915 3444.83331752 2000.70672607 3454.16345215 C2005.90795129 3463.2878284 2011.16777878 3472.37632774 2016.47094727 3481.44189453 C2022.62516742 3491.96584625 2028.71119996 3502.52880137 2034.79638672 3513.09277344 C2037.92430148 3518.52159942 2041.05608448 3523.94819281 2044.1875 3529.375 C2045.43751879 3531.54165583 2046.68751878 3533.7083225 2047.9375 3535.875 C2048.55625 3536.9475 2049.175 3538.02 2049.8125 3539.125 C2071.6875 3577.04166667 2093.5625 3614.95833333 2115.4375 3652.875 C2116.0567334 3653.94830566 2116.6759668 3655.02161133 2117.31396484 3656.12744141 C2118.55919484 3658.28590498 2119.80431272 3660.44443323 2121.04931641 3662.60302734 C2124.24636337 3668.14574741 2127.44557595 3673.68720008 2130.6484375 3679.2265625 C2134.33568542 3685.60503558 2138.01422972 3691.98846885 2141.6875 3698.375 C2142.16509766 3699.20338379 2142.64269531 3700.03176758 2143.13476562 3700.88525391 C2158.11114917 3726.90533361 2158.11114917 3726.90533361 2156.6875 3736.375 C2155.24609375 3738.25 2155.24609375 3738.25 2152.6875 3739.375 C2145.33759841 3739.88494649 2139.09004107 3736.63796125 2132.6875 3733.4375 C2131.67276611 3732.94024414 2130.65803223 3732.44298828 2129.61254883 3731.93066406 C2121.53798805 3727.92047096 2113.7935011 3723.49762221 2106.09375 3718.81933594 C2101.22584436 3715.89740719 2096.29563548 3713.08187593 2091.375 3710.25 C2090.27454346 3709.61553955 2089.17408691 3708.9810791 2088.0402832 3708.32739258 C2079.30247921 3703.29352793 2070.54509651 3698.29436772 2061.7852478 3693.29901123 C2052.74442659 3688.14175557 2043.74306088 3682.9200389 2034.76074219 3677.66162109 C2027.13844222 3673.20583656 2019.48218689 3668.81102854 2011.8125 3664.4375 C1997.33799631 3656.18334364 1982.90528154 3647.85782628 1968.47851562 3639.52050781 C1965.25681725 3637.65897328 1962.03478921 3635.79801161 1958.8125 3633.9375 C1957.74644531 3633.32197266 1956.68039062 3632.70644531 1955.58203125 3632.07226562 C1946.99754403 3627.12046958 1938.39169707 3622.20675132 1929.78277588 3617.29763794 C1920.74278292 3612.14083392 1911.74224679 3606.91956231 1902.76074219 3601.66162109 C1895.13844222 3597.20583656 1887.48218689 3592.81102854 1879.8125 3588.4375 C1867.48724804 3581.40896493 1855.19027933 3574.33259566 1842.90527344 3567.23388672 C1837.50079359 3564.11175397 1832.09405282 3560.99354119 1826.6875 3557.875 C1820.20983115 3554.13863085 1813.73260017 3550.40151653 1807.2578125 3546.66015625 C1795.45120516 3539.83997363 1783.62723 3533.0517674 1771.78277588 3526.29763794 C1762.74278292 3521.14083392 1753.74224679 3515.91956231 1744.76074219 3510.66162109 C1737.13844222 3506.20583656 1729.48218689 3501.81102854 1721.8125 3497.4375 C1707.33799631 3489.18334364 1692.90528154 3480.85782628 1678.47851562 3472.52050781 C1675.25681725 3470.65897328 1672.03478921 3468.79801161 1668.8125 3466.9375 C1667.74644531 3466.32197266 1666.68039062 3465.70644531 1665.58203125 3465.07226562 C1656.99754403 3460.12046958 1648.39169707 3455.20675132 1639.78277588 3450.29763794 C1630.74278292 3445.14083392 1621.74224679 3439.91956231 1612.76074219 3434.66162109 C1605.13844222 3430.20583656 1597.48218689 3425.81102854 1589.8125 3421.4375 C1575.33799631 3413.18334364 1560.90528154 3404.85782628 1546.47851562 3396.52050781 C1543.25681725 3394.65897328 1540.03478921 3392.79801161 1536.8125 3390.9375 C1535.74644531 3390.32197266 1534.68039062 3389.70644531 1533.58203125 3389.07226562 C1524.99754403 3384.12046958 1516.39169707 3379.20675132 1507.78277588 3374.29763794 C1498.74278292 3369.14083392 1489.74224679 3363.91956231 1480.76074219 3358.66162109 C1473.13844222 3354.20583656 1465.48218689 3349.81102854 1457.8125 3345.4375 C1443.33799631 3337.18334364 1428.90528154 3328.85782628 1414.47851562 3320.52050781 C1411.25681725 3318.65897328 1408.03478921 3316.79801161 1404.8125 3314.9375 C1403.74644531 3314.32197266 1402.68039062 3313.70644531 1401.58203125 3313.07226562 C1392.99754403 3308.12046958 1384.39169707 3303.20675132 1375.78277588 3298.29763794 C1366.74278292 3293.14083392 1357.74224679 3287.91956231 1348.76074219 3282.66162109 C1341.13844222 3278.20583656 1333.48218689 3273.81102854 1325.8125 3269.4375 C1311.33799631 3261.18334364 1296.90528154 3252.85782628 1282.47851562 3244.52050781 C1279.25681725 3242.65897328 1276.03478921 3240.79801161 1272.8125 3238.9375 C1271.74644531 3238.32197266 1270.68039062 3237.70644531 1269.58203125 3237.07226562 C1260.99754403 3232.12046958 1252.39169707 3227.20675132 1243.78277588 3222.29763794 C1234.74278292 3217.14083392 1225.74224679 3211.91956231 1216.76074219 3206.66162109 C1209.13844222 3202.20583656 1201.48218689 3197.81102854 1193.8125 3193.4375 C1179.33799631 3185.18334364 1164.90528154 3176.85782628 1150.47851562 3168.52050781 C1147.25681725 3166.65897328 1144.03478921 3164.79801161 1140.8125 3162.9375 C1139.74644531 3162.32197266 1138.68039062 3161.70644531 1137.58203125 3161.07226562 C1130.18032962 3156.80273665 1122.76385608 3152.55974626 1115.34118652 3148.32684326 C1105.08213312 3142.4763454 1094.83905784 3136.60047158 1084.6640625 3130.60449219 C1079.95093731 3127.83253015 1075.22343652 3125.10183561 1070.42819214 3122.47373962 C1068.63351933 3121.48904934 1066.84381723 3120.49584172 1065.05517578 3119.50024414 C1062.79239248 3118.24484703 1060.5203599 3117.00592158 1058.23779297 3115.78686523 C1051.29567828 3111.9073843 1047.4559814 3108.33695977 1043.6875 3101.375 C1042.56327794 3099.46698933 1041.43822696 3097.55946692 1040.3125 3095.65234375 C1039.10126293 3093.54072545 1037.89306377 3091.42736243 1036.6875 3089.3125 C1035.35340517 3086.98536457 1034.01877899 3084.65854053 1032.68359375 3082.33203125 C1032.34782822 3081.74625305 1032.01206268 3081.16047485 1031.66612244 3080.5569458 C1028.3938532 3074.85183594 1025.07388753 3069.17512771 1021.75 3063.5 C1016.32774965 3054.23032145 1010.98544759 3044.91667676 1005.66827393 3035.58654785 C1000.46704871 3026.4621716 995.20722122 3017.37367226 989.90405273 3008.30810547 C983.74983258 2997.78415375 977.66380004 2987.22119863 971.57861328 2976.65722656 C968.45069852 2971.22840058 965.31891552 2965.80180719 962.1875 2960.375 C960.93748121 2958.20834417 959.68748122 2956.0416775 958.4375 2953.875 C957.81875 2952.8025 957.2 2951.73 956.5625 2950.625 C845.93750001 2758.87500001 845.93750001 2758.87500001 844.06225586 2755.62451172 C842.81314482 2753.45942929 841.56395871 2751.29439018 840.31469727 2749.12939453 C837.17547691 2743.68884294 834.03759437 2738.24752784 830.90234375 2732.8046875 C824.88002671 2722.35293801 818.84080663 2711.91200452 812.75 2701.5 C807.32828822 2692.23000223 801.98545085 2682.91668248 796.66827393 2673.58654785 C791.46704871 2664.4621716 786.20722122 2655.37367226 780.90405273 2646.30810547 C774.74983258 2635.78415375 768.66380004 2625.22119863 762.57861328 2614.65722656 C759.45069852 2609.22840058 756.31891552 2603.80180719 753.1875 2598.375 C751.93748121 2596.20834417 750.68748122 2594.0416775 749.4375 2591.875 C748.81875 2590.8025 748.2 2589.73 747.5625 2588.625 C636.93750001 2396.87500001 636.93750001 2396.87500001 635.06225586 2393.62451172 C633.81314482 2391.45942929 632.56395871 2389.29439018 631.31469727 2387.12939453 C628.17547691 2381.68884294 625.03759437 2376.24752784 621.90234375 2370.8046875 C615.88002671 2360.35293801 609.84080663 2349.91200452 603.75 2339.5 C598.32828822 2330.23000223 592.98545085 2320.91668248 587.66827393 2311.58654785 C582.46704871 2302.4621716 577.20722122 2293.37367226 571.90405273 2284.30810547 C565.74983258 2273.78415375 559.66380004 2263.22119863 553.57861328 2252.65722656 C550.45069852 2247.22840058 547.31891552 2241.80180719 544.1875 2236.375 C542.93748121 2234.20834417 541.68748122 2232.0416775 540.4375 2229.875 C539.81875 2228.8025 539.2 2227.73 538.5625 2226.625 C427.93749999 2034.87499998 427.93749999 2034.87499998 426.06225586 2031.62451172 C424.81314482 2029.45942929 423.56395871 2027.29439018 422.31469727 2025.12939453 C419.17547691 2019.68884294 416.03759437 2014.24752784 412.90234375 2008.8046875 C406.88002671 1998.35293801 400.84080663 1987.91200452 394.75 1977.5 C389.32828822 1968.23000223 383.98545085 1958.91668248 378.66827393 1949.58654785 C373.46704871 1940.4621716 368.20722122 1931.37367226 362.90405273 1922.30810547 C356.74983258 1911.78415375 350.66380004 1901.22119863 344.57861328 1890.65722656 C341.45069852 1885.22840058 338.31891552 1879.80180719 335.1875 1874.375 C333.93748121 1872.20834417 332.68748122 1870.0416775 331.4375 1867.875 C330.81875 1866.8025 330.2 1865.73 329.5625 1864.625 C218.93750001 1672.87500001 218.93750001 1672.87500001 217.06225586 1669.62451172 C215.81314482 1667.45942929 214.56395871 1665.29439018 213.31469727 1663.12939453 C210.17547691 1657.68884294 207.03759437 1652.24752784 203.90234375 1646.8046875 C197.88002671 1636.35293801 191.84080663 1625.91200452 185.75 1615.5 C180.32828822 1606.23000223 174.98545085 1596.91668248 169.66827393 1587.58654785 C164.46704871 1578.4621716 159.20722122 1569.37367226 153.90405273 1560.30810547 C147.74983258 1549.78415375 141.66380004 1539.22119863 135.57861328 1528.65722656 C132.45069852 1523.22840058 129.31891552 1517.80180719 126.1875 1512.375 C124.93748121 1510.20834417 123.68748122 1508.0416775 122.4375 1505.875 C121.81875 1504.8025 121.2 1503.73 120.5625 1502.625 C24.9375 1336.875 24.9375 1336.875 23.06152344 1333.62329102 C21.81479744 1331.46231012 20.56805273 1329.30134002 19.32128906 1327.14038086 C16.14604117 1321.63681149 12.97114505 1316.13303968 9.796875 1310.62890625 C9.15041016 1309.50806641 8.50394531 1308.38722656 7.83789062 1307.23242188 C6.63333786 1305.14395269 5.42889704 1303.05541893 4.22460938 1300.96679688 C3.66064453 1299.98904297 3.09667969 1299.01128906 2.515625 1298.00390625 C1.96549006 1297.02559796 1.41535512 1296.04728967 0.84854943 1295.03933567 C-0.67530468 1292.38642935 -2.3241887 1289.85935113 -4.04844385 1287.3326245 C-12.21643266 1274.9792128 -13.86761272 1265.31757087 -13.56822205 1250.72227478 C-13.56581077 1248.58144307 -13.56830301 1246.44060136 -13.57518429 1244.29977936 C-13.58020304 1238.41639163 -13.51664829 1232.53545021 -13.44218954 1226.65260634 C-13.38029634 1220.85632262 -13.37208008 1215.06010395 -13.36230776 1209.26353378 C-13.34021569 1197.14866741 -13.26712961 1185.03459159 -13.16748238 1172.92013741 C-13.01971585 1154.8688537 -12.94728043 1136.81766662 -12.88741057 1118.76590514 C-12.8621084 1111.2242552 -12.83459524 1103.68261292 -12.80697155 1096.14097118 C-12.80388574 1095.29283033 -12.80079993 1094.44468947 -12.79762061 1093.57084737 C-12.74883187 1080.24888851 -12.68739023 1066.92702059 -12.61968708 1053.60514545 C-12.33721991 997.68499527 -12.2256689 941.76581247 -12.19380105 885.84498334 C-12.19125135 881.41921598 -12.18854186 876.99344872 -12.18583582 872.56768145 C-12.17483565 854.53942445 -12.1644338 836.51116709 -12.15532537 818.48290903 C-12.13832818 784.93596918 -12.10967958 751.38905506 -12.07162476 717.84213257 C-12.07031185 716.68346705 -12.06899894 715.52480153 -12.06764625 714.33102493 C-12.05161699 700.2193608 -12.03510806 686.10769724 -12.01840478 671.99603389 C-11.99457509 651.85060246 -11.97152234 631.70517012 -11.94839592 611.55973788 C-11.94292481 606.79510387 -11.93743528 602.03046989 -11.93193023 597.26583593 C-11.88866087 559.80058351 -11.84918108 522.33532817 -11.81151587 484.87006973 C-11.76958293 443.17306047 -11.72440623 401.47605593 -11.67562145 359.77905411 C-11.67025629 355.18373137 -11.66490336 350.58840862 -11.65955925 345.99308586 C-11.65824352 344.86306941 -11.65692779 343.73305295 -11.6555722 342.56879358 C-11.63746274 326.96258425 -11.62121035 311.35637403 -11.60650126 295.75016114 C-11.45355277 133.69711173 -11.45355277 133.69711173 -10.94458251 67.53793029 C-10.9181522 63.96382772 -10.89498767 60.38971809 -10.87275612 56.81558716 C-10.8384867 51.41272177 -10.79450893 46.01002914 -10.74200423 40.60731085 C-10.72467891 38.69407286 -10.71037225 36.78080445 -10.69951551 34.86751883 C-10.53987067 8.11150859 -10.53987067 8.11150859 -5.3125 0.375 C-2.3125 -0.625 -2.3125 -0.625 0 0 Z " fill="#4287f5" transform="translate(2743.3125,190.625)"/>
</svg>
