<?xml version="1.0" encoding="UTF-8"?>
<svg version="1.1" xmlns="http://www.w3.org/2000/svg" width="5400" height="5400">
<path d="M0 0 C3.89597197 2.05051157 4.97386996 5.21019335 6.375 9.25 C7.82093374 17.27759554 7.54246109 25.57811401 7.57139587 33.70327759 C7.58011952 35.17954659 7.58923157 36.65581334 7.59869045 38.13207781 C7.62365647 42.24235466 7.64235478 46.35263973 7.65984878 50.46295434 C7.67601838 54.10358566 7.69550424 57.74419683 7.7148494 61.38481244 C7.77575671 72.89589715 7.82593969 84.40701686 7.87364316 95.91816282 C7.89758987 101.69431527 7.92284395 107.47046116 7.94846878 113.24660637 C8.36455927 207.24756554 8.50783282 301.24916131 8.88504343 621.51239946 C8.92218732 658.20683643 8.96149595 694.90127048 9.00268555 731.59570312 C9.00472934 733.41723858 9.00472934 733.41723858 9.00681442 735.27557273 C9.01779022 745.05697482 9.02877455 754.83837691 9.03977392 764.61977897 C9.08896755 808.36700073 9.13672618 852.11422407 9.18405947 895.86144787 C9.18894026 900.37209434 9.19382972 904.8827408 9.19872728 909.39338726 C9.20115248 911.62762336 9.20357754 913.86185946 9.20600247 916.09609556 C9.2077949 917.7470856 9.2077949 917.7470856 9.20962353 919.43142897 C9.21559085 924.93543531 9.221517 930.43944169 9.22736153 935.94344816 C9.22967223 938.1186302 9.23198309 940.29381223 9.23429412 942.46899426 C9.23543087 943.53989306 9.23656763 944.61079186 9.23773883 945.71414215 C9.24457725 952.11854141 9.25176073 958.52294017 9.25921539 964.92733875 C9.28264978 985.13486877 9.30176247 1005.34236547 9.30039295 1025.54991068 C9.3000744 1033.07950651 9.30131627 1040.60910213 9.30327224 1048.13869769 C9.30374637 1049.96495291 9.3041605 1051.79120815 9.30451352 1053.6174634 C9.30956773 1076.26619176 9.40267672 1098.91070019 9.66749612 1121.55792606 C9.76682288 1130.12742043 9.83691678 1138.69716612 9.90542291 1147.26695812 C9.96429696 1154.19000438 10.06595162 1161.11041561 10.20631418 1168.0322662 C10.27924326 1172.11747875 10.31101921 1176.20223829 10.33102973 1180.2880201 C10.34851016 1182.1064218 10.38304127 1183.92477213 10.43788259 1185.74243072 C10.82373758 1198.82680337 7.69956278 1207.41250863 0.5802669 1218.3788325 C-1.09310214 1220.97672494 -2.61352626 1223.65583339 -4.13671875 1226.34375 C-5.19356251 1228.14686019 -6.25216491 1229.94894071 -7.3125 1231.75 C-8.51616363 1233.80437201 -9.71926893 1235.85907123 -10.921875 1237.9140625 C-11.53095703 1238.9546582 -12.14003906 1239.99525391 -12.76757812 1241.06738281 C-15.88497193 1246.4089109 -18.97442542 1251.76648374 -22.0625 1257.125 C-22.68471436 1258.20458984 -23.30692871 1259.28417969 -23.94799805 1260.39648438 C-25.21011517 1262.5868252 -26.47207785 1264.77725502 -27.73388672 1266.96777344 C-30.86180148 1272.39659942 -33.99358448 1277.82319281 -37.125 1283.25 C-38.37501879 1285.41665583 -39.62501878 1287.5833225 -40.875 1289.75 C-73.375 1346.08333333 -105.875 1402.41666667 -138.375 1458.75 C-138.99383057 1459.82266113 -139.61266113 1460.89532227 -140.25024414 1462.00048828 C-141.49935518 1464.16557071 -142.74854129 1466.33060982 -143.99780273 1468.49560547 C-147.13702309 1473.93615706 -150.27490563 1479.37747216 -153.41015625 1484.8203125 C-159.43247329 1495.27206199 -165.47169337 1505.71299548 -171.5625 1516.125 C-176.63775123 1524.80262241 -181.64758767 1533.51605568 -186.625 1542.25 C-192.1650173 1551.97115617 -197.75874809 1561.65894658 -203.40844727 1571.31689453 C-209.56266742 1581.84084625 -215.64869996 1592.40380137 -221.73388672 1602.96777344 C-224.86180148 1608.39659942 -227.99358448 1613.82319281 -231.125 1619.25 C-232.37501879 1621.41665583 -233.62501878 1623.5833225 -234.875 1625.75 C-272.375 1690.75 -309.875 1755.75 -347.375 1820.75 C-347.99383057 1821.82266113 -348.61266113 1822.89532227 -349.25024414 1824.00048828 C-350.49935518 1826.16557071 -351.74854129 1828.33060982 -352.99780273 1830.49560547 C-356.13702309 1835.93615706 -359.27490563 1841.37747216 -362.41015625 1846.8203125 C-368.43247329 1857.27206199 -374.47169337 1867.71299548 -380.5625 1878.125 C-385.63775123 1886.80262241 -390.64758767 1895.51605568 -395.625 1904.25 C-401.1650173 1913.97115617 -406.75874809 1923.65894658 -412.40844727 1933.31689453 C-418.56266742 1943.84084625 -424.64869996 1954.40380137 -430.73388672 1964.96777344 C-433.86180148 1970.39659942 -436.99358448 1975.82319281 -440.125 1981.25 C-441.37501879 1983.41665583 -442.62501878 1985.5833225 -443.875 1987.75 C-481.375 2052.75 -518.875 2117.75 -556.375 2182.75 C-556.99383057 2183.82266113 -557.61266113 2184.89532227 -558.25024414 2186.00048828 C-559.49935518 2188.16557071 -560.74854129 2190.33060982 -561.99780273 2192.49560547 C-565.13702309 2197.93615706 -568.27490563 2203.37747216 -571.41015625 2208.8203125 C-577.43247329 2219.27206199 -583.47169337 2229.71299548 -589.5625 2240.125 C-594.63775123 2248.80262241 -599.64758767 2257.51605568 -604.625 2266.25 C-610.1650173 2275.97115617 -615.75874809 2285.65894658 -621.40844727 2295.31689453 C-627.56266742 2305.84084625 -633.64869996 2316.40380137 -639.73388672 2326.96777344 C-642.86180148 2332.39659942 -645.99358448 2337.82319281 -649.125 2343.25 C-650.37501879 2345.41665583 -651.62501878 2347.5833225 -652.875 2349.75 C-690.375 2414.75 -727.875 2479.75 -765.375 2544.75 C-765.99383057 2545.82266113 -766.61266113 2546.89532227 -767.25024414 2548.00048828 C-768.49935518 2550.16557071 -769.74854129 2552.33060982 -770.99780273 2554.49560547 C-774.13702309 2559.93615706 -777.27490563 2565.37747216 -780.41015625 2570.8203125 C-786.43247329 2581.27206199 -792.47169337 2591.71299548 -798.5625 2602.125 C-803.63775123 2610.80262241 -808.64758767 2619.51605568 -813.625 2628.25 C-819.1650173 2637.97115617 -824.75874809 2647.65894658 -830.40844727 2657.31689453 C-836.56266742 2667.84084625 -842.64869996 2678.40380137 -848.73388672 2688.96777344 C-851.86180148 2694.39659942 -854.99358448 2699.82319281 -858.125 2705.25 C-859.37501879 2707.41665583 -860.62501878 2709.5833225 -861.875 2711.75 C-894.375 2768.08333333 -926.875 2824.41666667 -959.375 2880.75 C-959.99439453 2881.82362793 -960.61378906 2882.89725586 -961.25195312 2884.00341797 C-962.4954051 2886.15871311 -963.73889436 2888.31398673 -964.98242188 2890.46923828 C-967.86962875 2895.47337674 -970.7565043 2900.4777052 -973.64196777 2905.48284912 C-974.65119104 2907.23341241 -975.66053836 2908.98390411 -976.66992188 2910.734375 C-977.9266766 2912.91392165 -979.18320586 2915.09359832 -980.43945312 2917.2734375 C-981.59534258 2919.27784021 -982.75969224 2921.27739029 -983.93286133 2923.27172852 C-985.07359619 2925.27949429 -986.15112575 2927.32432963 -987.16674805 2929.39819336 C-991.57081687 2938.01690143 -996.98291833 2941.71922471 -1005.4375 2946.0625 C-1006.68721455 2946.73546275 -1007.93507004 2947.41188795 -1009.18115234 2948.09155273 C-1011.73832914 2949.4833367 -1014.30240715 2950.86085175 -1016.87255859 2952.22851562 C-1022.57918642 2955.2817619 -1028.15883723 2958.55415895 -1033.75 2961.8125 C-1035.90057797 2963.05549012 -1038.0516198 2964.29767802 -1040.203125 2965.5390625 C-1042.34379389 2966.77596571 -1044.48441894 2968.01294479 -1046.625 2969.25 C-1060.57344368 2977.31089304 -1074.53503888 2985.34709426 -1088.52972412 2993.32736206 C-1096.58763212 2997.92394223 -1104.61917786 3002.5632416 -1112.625 3007.25 C-1121.22022672 3012.2818069 -1129.8481213 3017.25389072 -1138.5 3022.1875 C-1147.59579987 3027.37442426 -1156.68212263 3032.57681506 -1165.75 3037.8125 C-1166.81605469 3038.42802734 -1167.88210938 3039.04355469 -1168.98046875 3039.67773438 C-1172.19557523 3041.53470194 -1175.41035378 3043.39223579 -1178.625 3045.25 C-1192.57344368 3053.31089304 -1206.53503888 3061.34709426 -1220.52972412 3069.32736206 C-1228.58763212 3073.92394223 -1236.61917786 3078.5632416 -1244.625 3083.25 C-1253.22022672 3088.2818069 -1261.8481213 3093.25389072 -1270.5 3098.1875 C-1279.59579987 3103.37442426 -1288.68212263 3108.57681506 -1297.75 3113.8125 C-1298.81605469 3114.42802734 -1299.88210938 3115.04355469 -1300.98046875 3115.67773438 C-1304.19557523 3117.53470194 -1307.41035378 3119.39223579 -1310.625 3121.25 C-1324.57344368 3129.31089304 -1338.53503888 3137.34709426 -1352.52972412 3145.32736206 C-1360.58763212 3149.92394223 -1368.61917786 3154.5632416 -1376.625 3159.25 C-1385.22022672 3164.2818069 -1393.8481213 3169.25389072 -1402.5 3174.1875 C-1411.59579987 3179.37442426 -1420.68212263 3184.57681506 -1429.75 3189.8125 C-1430.81605469 3190.42802734 -1431.88210938 3191.04355469 -1432.98046875 3191.67773438 C-1436.19557523 3193.53470194 -1439.41035378 3195.39223579 -1442.625 3197.25 C-1456.57344368 3205.31089304 -1470.53503888 3213.34709426 -1484.52972412 3221.32736206 C-1492.58763212 3225.92394223 -1500.61917786 3230.5632416 -1508.625 3235.25 C-1517.22022672 3240.2818069 -1525.8481213 3245.25389072 -1534.5 3250.1875 C-1543.59579987 3255.37442426 -1552.68212263 3260.57681506 -1561.75 3265.8125 C-1562.81605469 3266.42802734 -1563.88210938 3267.04355469 -1564.98046875 3267.67773438 C-1568.19557523 3269.53470194 -1571.41035378 3271.39223579 -1574.625 3273.25 C-1588.57344368 3281.31089304 -1602.53503888 3289.34709426 -1616.52972412 3297.32736206 C-1624.58763212 3301.92394223 -1632.61917786 3306.5632416 -1640.625 3311.25 C-1649.22022672 3316.2818069 -1657.8481213 3321.25389072 -1666.5 3326.1875 C-1675.59579987 3331.37442426 -1684.68212263 3336.57681506 -1693.75 3341.8125 C-1694.81605469 3342.42802734 -1695.88210938 3343.04355469 -1696.98046875 3343.67773438 C-1700.19557523 3345.53470194 -1703.41035378 3347.39223579 -1706.625 3349.25 C-1720.57344368 3357.31089304 -1734.53503888 3365.34709426 -1748.52972412 3373.32736206 C-1756.58763212 3377.92394223 -1764.61917786 3382.5632416 -1772.625 3387.25 C-1781.22022672 3392.2818069 -1789.8481213 3397.25389072 -1798.5 3402.1875 C-1807.59579987 3407.37442426 -1816.68212263 3412.57681506 -1825.75 3417.8125 C-1826.81605469 3418.42802734 -1827.88210938 3419.04355469 -1828.98046875 3419.67773438 C-1832.19557523 3421.53470194 -1835.41035378 3423.39223579 -1838.625 3425.25 C-1852.57344368 3433.31089304 -1866.53503888 3441.34709426 -1880.52972412 3449.32736206 C-1888.58763212 3453.92394223 -1896.61917786 3458.5632416 -1904.625 3463.25 C-1913.22022672 3468.2818069 -1921.8481213 3473.25389072 -1930.5 3478.1875 C-1939.59580049 3483.37442461 -1948.68205511 3488.57693116 -1957.75 3493.8125 C-1958.80880371 3494.42367676 -1959.86760742 3495.03485352 -1960.95849609 3495.66455078 C-1966.44050122 3498.83016867 -1971.92022486 3501.99969907 -1977.3984375 3505.171875 C-2004.33247492 3520.75943142 -2004.33247492 3520.75943142 -2014.625 3526.25 C-2015.23649902 3526.57887207 -2015.84799805 3526.90774414 -2016.47802734 3527.24658203 C-2023.30502135 3530.86285178 -2029.75968571 3533.90921437 -2037.625 3532.25 C-2039.625 3530.25 -2039.625 3530.25 -2039.8828125 3528.2109375 C-2039.39701765 3518.75222598 -2035.09360083 3511.34668352 -2030.625 3503.25 C-2029.87066435 3501.85570098 -2029.11675889 3500.46116913 -2028.36328125 3499.06640625 C-2023.17555326 3489.54595057 -2017.70145799 3480.19134257 -2012.22021484 3470.83789062 C-2007.63427045 3463.00577117 -2003.11722905 3455.13603624 -1998.625 3447.25 C-1993.08548161 3437.52856294 -1987.49124806 3427.84104683 -1981.84155273 3418.18310547 C-1975.68733258 3407.65915375 -1969.60130004 3397.09619863 -1963.51611328 3386.53222656 C-1960.38819852 3381.10340058 -1957.25641552 3375.67680719 -1954.125 3370.25 C-1952.87498121 3368.08334417 -1951.62498122 3365.9166775 -1950.375 3363.75 C-1917.875 3307.41666667 -1885.375 3251.08333333 -1852.875 3194.75 C-1852.25616943 3193.67733887 -1851.63733887 3192.60467773 -1850.99975586 3191.49951172 C-1849.75064482 3189.33442929 -1848.50145871 3187.16939018 -1847.25219727 3185.00439453 C-1844.11297691 3179.56384294 -1840.97509437 3174.12252784 -1837.83984375 3168.6796875 C-1831.81752671 3158.22793801 -1825.77830663 3147.78700452 -1819.6875 3137.375 C-1814.61224877 3128.69737759 -1809.60241233 3119.98394432 -1804.625 3111.25 C-1799.0849827 3101.52884383 -1793.49125191 3091.84105342 -1787.84155273 3082.18310547 C-1781.68733258 3071.65915375 -1775.60130004 3061.09619863 -1769.51611328 3050.53222656 C-1766.38819852 3045.10340058 -1763.25641552 3039.67680719 -1760.125 3034.25 C-1758.87498121 3032.08334417 -1757.62498122 3029.9166775 -1756.375 3027.75 C-1718.875 2962.75 -1681.375 2897.75 -1643.875 2832.75 C-1643.25616943 2831.67733887 -1642.63733887 2830.60467773 -1641.99975586 2829.49951172 C-1640.75064482 2827.33442929 -1639.50145871 2825.16939018 -1638.25219727 2823.00439453 C-1635.11297691 2817.56384294 -1631.97509437 2812.12252784 -1628.83984375 2806.6796875 C-1622.81752671 2796.22793801 -1616.77830663 2785.78700452 -1610.6875 2775.375 C-1605.61224877 2766.69737759 -1600.60241233 2757.98394432 -1595.625 2749.25 C-1590.0849827 2739.52884383 -1584.49125191 2729.84105342 -1578.84155273 2720.18310547 C-1572.68733258 2709.65915375 -1566.60130004 2699.09619863 -1560.51611328 2688.53222656 C-1557.38819852 2683.10340058 -1554.25641552 2677.67680719 -1551.125 2672.25 C-1549.87498121 2670.08334417 -1548.62498122 2667.9166775 -1547.375 2665.75 C-1509.875 2600.75 -1472.375 2535.75 -1434.875 2470.75 C-1434.25616943 2469.67733887 -1433.63733887 2468.60467773 -1432.99975586 2467.49951172 C-1431.75064482 2465.33442929 -1430.50145871 2463.16939018 -1429.25219727 2461.00439453 C-1426.11297691 2455.56384294 -1422.97509437 2450.12252784 -1419.83984375 2444.6796875 C-1413.81752671 2434.22793801 -1407.77830663 2423.78700452 -1401.6875 2413.375 C-1396.61224877 2404.69737759 -1391.60241233 2395.98394432 -1386.625 2387.25 C-1381.0849827 2377.52884383 -1375.49125191 2367.84105342 -1369.84155273 2358.18310547 C-1363.68733258 2347.65915375 -1357.60130004 2337.09619863 -1351.51611328 2326.53222656 C-1348.38819852 2321.10340058 -1345.25641552 2315.67680719 -1342.125 2310.25 C-1340.87498121 2308.08334417 -1339.62498122 2305.9166775 -1338.375 2303.75 C-1305.875 2247.41666667 -1273.375 2191.08333333 -1240.875 2134.75 C-1240.25616943 2133.67733887 -1239.63733887 2132.60467773 -1238.99975586 2131.49951172 C-1237.75064482 2129.33442929 -1236.50145871 2127.16939018 -1235.25219727 2125.00439453 C-1232.11297691 2119.56384294 -1228.97509437 2114.12252784 -1225.83984375 2108.6796875 C-1219.81752671 2098.22793801 -1213.77830663 2087.78700452 -1207.6875 2077.375 C-1202.61224877 2068.69737759 -1197.60241233 2059.98394432 -1192.625 2051.25 C-1187.0849827 2041.52884383 -1181.49125191 2031.84105342 -1175.84155273 2022.18310547 C-1169.68733258 2011.65915375 -1163.60130004 2001.09619863 -1157.51611328 1990.53222656 C-1154.38819852 1985.10340058 -1151.25641552 1979.67680719 -1148.125 1974.25 C-1146.87498121 1972.08334417 -1145.62498122 1969.9166775 -1144.375 1967.75 C-1106.875 1902.75 -1069.375 1837.75 -1031.875 1772.75 C-1031.25616943 1771.67733887 -1030.63733887 1770.60467773 -1029.99975586 1769.49951172 C-1028.75064482 1767.33442929 -1027.50145871 1765.16939018 -1026.25219727 1763.00439453 C-1023.11297691 1757.56384294 -1019.97509437 1752.12252784 -1016.83984375 1746.6796875 C-1010.81752671 1736.22793801 -1004.77830663 1725.78700452 -998.6875 1715.375 C-993.61224877 1706.69737759 -988.60241233 1697.98394432 -983.625 1689.25 C-978.0849827 1679.52884383 -972.49125191 1669.84105342 -966.84155273 1660.18310547 C-960.68733258 1649.65915375 -954.60130004 1639.09619863 -948.51611328 1628.53222656 C-945.38819852 1623.10340058 -942.25641552 1617.67680719 -939.125 1612.25 C-937.87498121 1610.08334417 -936.62498122 1607.9166775 -935.375 1605.75 C-879.125 1508.25 -879.125 1508.25 -822.875 1410.75 C-822.25616943 1409.67733887 -821.63733887 1408.60467773 -820.99975586 1407.49951172 C-819.75064482 1405.33442929 -818.50145871 1403.16939018 -817.25219727 1401.00439453 C-814.11297691 1395.56384294 -810.97509437 1390.12252784 -807.83984375 1384.6796875 C-801.81752671 1374.22793801 -795.77830663 1363.78700452 -789.6875 1353.375 C-784.61224877 1344.69737759 -779.60241233 1335.98394432 -774.625 1327.25 C-769.0849827 1317.52884383 -763.49125191 1307.84105342 -757.84155273 1298.18310547 C-751.68733258 1287.65915375 -745.60130004 1277.09619863 -739.51611328 1266.53222656 C-736.38819852 1261.10340058 -733.25641552 1255.67680719 -730.125 1250.25 C-728.87498121 1248.08334417 -727.62498122 1245.9166775 -726.375 1243.75 C-688.875 1178.75 -651.375 1113.75 -613.875 1048.75 C-613.25616943 1047.67733887 -612.63733887 1046.60467773 -611.99975586 1045.49951172 C-610.75064482 1043.33442929 -609.50145871 1041.16939018 -608.25219727 1039.00439453 C-605.11297691 1033.56384294 -601.97509437 1028.12252784 -598.83984375 1022.6796875 C-592.81752671 1012.22793801 -586.77830663 1001.78700452 -580.6875 991.375 C-575.61224877 982.69737759 -570.60241233 973.98394432 -565.625 965.25 C-560.0849827 955.52884383 -554.49125191 945.84105342 -548.84155273 936.18310547 C-542.68733258 925.65915375 -536.60130004 915.09619863 -530.51611328 904.53222656 C-527.38819852 899.10340058 -524.25641552 893.67680719 -521.125 888.25 C-519.87498121 886.08334417 -518.62498122 883.9166775 -517.375 881.75 C-479.875 816.75 -442.375 751.75 -404.875 686.75 C-404.25616943 685.67733887 -403.63733887 684.60467773 -402.99975586 683.49951172 C-401.75064482 681.33442929 -400.50145871 679.16939018 -399.25219727 677.00439453 C-396.11297691 671.56384294 -392.97509437 666.12252784 -389.83984375 660.6796875 C-383.81752671 650.22793801 -377.77830663 639.78700452 -371.6875 629.375 C-366.61224877 620.69737759 -361.60241233 611.98394432 -356.625 603.25 C-351.0849827 593.52884383 -345.49125191 583.84105342 -339.84155273 574.18310547 C-333.68733258 563.65915375 -327.60130004 553.09619863 -321.51611328 542.53222656 C-318.38819852 537.10340058 -315.25641552 531.67680719 -312.125 526.25 C-310.87498121 524.08334417 -309.62498122 521.9166775 -308.375 519.75 C-270.875 454.75 -233.375 389.75 -195.875 324.75 C-195.25616943 323.67733887 -194.63733887 322.60467773 -193.99975586 321.49951172 C-192.75064482 319.33442929 -191.50145871 317.16939018 -190.25219727 315.00439453 C-187.11297691 309.56384294 -183.97509437 304.12252784 -180.83984375 298.6796875 C-174.81752671 288.22793801 -168.77830663 277.78700452 -162.6875 267.375 C-157.61224877 258.69737759 -152.60241233 249.98394432 -147.625 241.25 C-142.0849827 231.52884383 -136.49125191 221.84105342 -130.84155273 212.18310547 C-124.68733258 201.65915375 -118.60130004 191.09619863 -112.51611328 180.53222656 C-109.38819852 175.10340058 -106.25641552 169.67680719 -103.125 164.25 C-101.87498121 162.08334417 -100.62498122 159.9166775 -99.375 157.75 C-81.875 127.41666667 -64.375 97.08333333 -46.875 66.75 C-46.2560083 65.6767749 -45.6370166 64.6035498 -44.99926758 63.49780273 C-43.75278026 61.33784171 -42.50522657 59.17849572 -41.2565918 57.01977539 C-38.06868804 51.50514725 -34.90174229 45.98006905 -31.76953125 40.43359375 C-26.16712192 30.5453164 -20.55175591 20.71480158 -14.0625 11.375 C-13.3660437 10.35877563 -13.3660437 10.35877563 -12.65551758 9.32202148 C-9.4320215 4.83062863 -5.82843212 0.55508877 0 0 Z " fill="#FEFEFE" transform="translate(2614.625,751.75)"/>
<path d="M0 0 C2.73743126 -0.20294749 4.49425387 -0.28268331 6.921875 1.07421875 C18.99904498 11.7320632 26.18629364 26.99408545 34.03361511 40.79164124 C37.49480174 46.87708365 40.99686353 52.93864598 44.5 59 C45.75018334 61.16656088 47.00018301 63.33322776 48.25 65.5 C48.86875 66.5725 49.4875 67.645 50.125 68.75 C160.75 260.5 160.75 260.5 162.62524414 263.75048828 C163.87435518 265.91557071 165.12354129 268.08060982 166.37280273 270.24560547 C169.51202309 275.68615706 172.64990563 281.12747216 175.78515625 286.5703125 C181.80747329 297.02206199 187.84669337 307.46299548 193.9375 317.875 C199.35921178 327.14499777 204.70204915 336.45831752 210.01922607 345.78845215 C215.22045129 354.9128284 220.48027878 364.00132774 225.78344727 373.06689453 C231.93766742 383.59084625 238.02369996 394.15380137 244.10888672 404.71777344 C247.23680148 410.14659942 250.36858448 415.57319281 253.5 421 C254.75001879 423.16665583 256.00001878 425.3333225 257.25 427.5 C257.86875 428.5725 258.4875 429.645 259.125 430.75 C369.75 622.5 369.75 622.5 371.62524414 625.75048828 C372.87435518 627.91557071 374.12354129 630.08060982 375.37280273 632.24560547 C378.51202309 637.68615706 381.64990563 643.12747216 384.78515625 648.5703125 C390.80747329 659.02206199 396.84669337 669.46299548 402.9375 679.875 C408.35921178 689.14499777 413.70204915 698.45831752 419.01922607 707.78845215 C424.22045129 716.9128284 429.48027878 726.00132774 434.78344727 735.06689453 C440.93766742 745.59084625 447.02369996 756.15380137 453.10888672 766.71777344 C456.23680148 772.14659942 459.36858448 777.57319281 462.5 783 C463.75001879 785.16665583 465.00001878 787.3333225 466.25 789.5 C466.86875 790.5725 467.4875 791.645 468.125 792.75 C578.74999999 984.49999999 578.74999999 984.49999999 580.62524414 987.75048828 C581.87435518 989.91557071 583.12354129 992.08060982 584.37280273 994.24560547 C587.51202309 999.68615706 590.64990563 1005.12747216 593.78515625 1010.5703125 C599.80747329 1021.02206199 605.84669337 1031.46299548 611.9375 1041.875 C617.35921178 1051.14499777 622.70204915 1060.45831752 628.01922607 1069.78845215 C633.22045129 1078.9128284 638.48027878 1088.00132774 643.78344727 1097.06689453 C649.93766742 1107.59084625 656.02369996 1118.15380137 662.10888672 1128.71777344 C665.23680148 1134.14659942 668.36858448 1139.57319281 671.5 1145 C672.75001879 1147.16665583 674.00001878 1149.3333225 675.25 1151.5 C676.178125 1153.10875 676.178125 1153.10875 677.125 1154.75 C787.75000001 1346.50000002 787.75000001 1346.50000002 789.62524414 1349.75048828 C790.87435518 1351.91557071 792.12354129 1354.08060982 793.37280273 1356.24560547 C796.51202309 1361.68615706 799.64990563 1367.12747216 802.78515625 1372.5703125 C808.80747329 1383.02206199 814.84669337 1393.46299548 820.9375 1403.875 C826.35921178 1413.14499777 831.70204915 1422.45831752 837.01922607 1431.78845215 C842.22045129 1440.9128284 847.48027878 1450.00132774 852.78344727 1459.06689453 C858.93766742 1469.59084625 865.02369996 1480.15380137 871.10888672 1490.71777344 C874.23680148 1496.14659942 877.36858448 1501.57319281 880.5 1507 C881.75001879 1509.16665583 883.00001878 1511.3333225 884.25 1513.5 C885.178125 1515.10875 885.178125 1515.10875 886.125 1516.75 C996.75000001 1708.50000002 996.75000001 1708.50000002 998.62524414 1711.75048828 C999.87435518 1713.91557071 1001.12354129 1716.08060982 1002.37280273 1718.24560547 C1005.51202309 1723.68615706 1008.64990563 1729.12747216 1011.78515625 1734.5703125 C1017.80747329 1745.02206199 1023.84669337 1755.46299548 1029.9375 1765.875 C1035.35921178 1775.14499777 1040.70204915 1784.45831752 1046.01922607 1793.78845215 C1051.22045129 1802.9128284 1056.48027878 1812.00132774 1061.78344727 1821.06689453 C1067.93766742 1831.59084625 1074.02369996 1842.15380137 1080.10888672 1852.71777344 C1083.23680148 1858.14659942 1086.36858448 1863.57319281 1089.5 1869 C1090.75001879 1871.16665583 1092.00001878 1873.3333225 1093.25 1875.5 C1093.86875 1876.5725 1094.4875 1877.645 1095.125 1878.75 C1205.74999999 2070.49999999 1205.74999999 2070.49999999 1207.62524414 2073.75048828 C1208.87435518 2075.91557071 1210.12354129 2078.08060982 1211.37280273 2080.24560547 C1214.51202309 2085.68615706 1217.64990563 2091.12747216 1220.78515625 2096.5703125 C1226.80747329 2107.02206199 1232.84669337 2117.46299548 1238.9375 2127.875 C1244.35921178 2137.14499777 1249.70204915 2146.45831752 1255.01922607 2155.78845215 C1260.22045129 2164.9128284 1265.48027878 2174.00132774 1270.78344727 2183.06689453 C1276.93766742 2193.59084625 1283.02369996 2204.15380137 1289.10888672 2214.71777344 C1292.23680148 2220.14659942 1295.36858448 2225.57319281 1298.5 2231 C1299.75001879 2233.16665583 1301.00001878 2235.3333225 1302.25 2237.5 C1302.86875 2238.5725 1303.4875 2239.645 1304.125 2240.75 C1399.75 2406.5 1399.75 2406.5 1401.62524414 2409.75048828 C1402.87435518 2411.91557071 1404.12354129 2414.08060982 1405.37280273 2416.24560547 C1408.51202309 2421.68615706 1411.64990563 2427.12747216 1414.78515625 2432.5703125 C1420.80747329 2443.02206199 1426.84669337 2453.46299548 1432.9375 2463.875 C1438.35921178 2473.14499777 1443.70204915 2482.45831752 1449.01922607 2491.78845215 C1454.22045129 2500.9128284 1459.48027878 2510.00132774 1464.78344727 2519.06689453 C1470.93766742 2529.59084625 1477.02369996 2540.15380137 1483.10888672 2550.71777344 C1486.23680148 2556.14659942 1489.36858448 2561.57319281 1492.5 2567 C1493.75001879 2569.16665583 1495.00001878 2571.3333225 1496.25 2573.5 C1496.86875 2574.5725 1497.4875 2575.645 1498.125 2576.75 C1608.74999999 2768.49999999 1608.74999999 2768.49999999 1610.62524414 2771.75048828 C1611.87435518 2773.91557071 1613.12354129 2776.08060982 1614.37280273 2778.24560547 C1617.51202309 2783.68615706 1620.64990563 2789.12747216 1623.78515625 2794.5703125 C1629.80747329 2805.02206199 1635.84669337 2815.46299548 1641.9375 2825.875 C1647.35921178 2835.14499777 1652.70204915 2844.45831752 1658.01922607 2853.78845215 C1663.22045129 2862.9128284 1668.48027878 2872.00132774 1673.78344727 2881.06689453 C1679.93766742 2891.59084625 1686.02369996 2902.15380137 1692.10888672 2912.71777344 C1695.23680148 2918.14659942 1698.36858448 2923.57319281 1701.5 2929 C1702.75001879 2931.16665583 1704.00001878 2933.3333225 1705.25 2935.5 C1705.86875 2936.5725 1706.4875 2937.645 1707.125 2938.75 C1817.74999999 3130.49999999 1817.74999999 3130.49999999 1819.62524414 3133.75048828 C1820.87435518 3135.91557071 1822.12354129 3138.08060982 1823.37280273 3140.24560547 C1826.51202309 3145.68615706 1829.64990563 3151.12747216 1832.78515625 3156.5703125 C1838.80747329 3167.02206199 1844.84669337 3177.46299548 1850.9375 3187.875 C1856.35921178 3197.14499777 1861.70204915 3206.45831752 1867.01922607 3215.78845215 C1872.22045129 3224.9128284 1877.48027878 3234.00132774 1882.78344727 3243.06689453 C1888.93766742 3253.59084625 1895.02369996 3264.15380137 1901.10888672 3274.71777344 C1904.23680148 3280.14659942 1907.36858448 3285.57319281 1910.5 3291 C1911.75001879 3293.16665583 1913.00001878 3295.3333225 1914.25 3297.5 C1914.86875 3298.5725 1915.4875 3299.645 1916.125 3300.75 C1943 3347.33333333 1969.875 3393.91666667 1996.75 3440.5 C1997.3689917 3441.57290283 1997.9879834 3442.64580566 1998.62573242 3443.7512207 C1999.8733474 3445.91378583 2001.12090616 3448.07638339 2002.3684082 3450.23901367 C2005.52943449 3455.71870371 2008.69149309 3461.19779358 2011.85546875 3466.67578125 C2014.3777001 3471.04272032 2016.89704527 3475.41130372 2019.4140625 3479.78125 C2021.73311082 3483.80742759 2024.06171555 3487.82780756 2026.3984375 3491.84375 C2042 3518.73802942 2042 3518.73802942 2042 3529 C2040 3532 2040 3532 2037.92041016 3532.42041016 C2031.56267781 3532.40430836 2027.00426584 3531.27067199 2021.375 3528.375 C2020.56925537 3527.97676025 2019.76351074 3527.57852051 2018.93334961 3527.16821289 C2010.21883996 3522.76998075 2001.83064576 3517.79082065 1993.44140625 3512.80859375 C1987.26169169 3509.1388233 1981.02923652 3505.56623983 1974.7819519 3502.01345825 C1965.48998092 3496.72878999 1956.2247121 3491.40150435 1947 3486 C1938.4048271 3480.9681021 1929.77687778 3475.99610876 1921.125 3471.0625 C1908.79974804 3464.03396493 1896.50277933 3456.95759566 1884.21777344 3449.85888672 C1878.81329359 3446.73675397 1873.40655282 3443.61854119 1868 3440.5 C1861.52233115 3436.76363085 1855.04510017 3433.02651653 1848.5703125 3429.28515625 C1836.76370516 3422.46497363 1824.93973 3415.6767674 1813.09527588 3408.92263794 C1804.05528292 3403.76583392 1795.05474679 3398.54456231 1786.07324219 3393.28662109 C1778.45094222 3388.83083656 1770.79468689 3384.43602854 1763.125 3380.0625 C1748.65049631 3371.80834364 1734.21778154 3363.48282628 1719.79101562 3355.14550781 C1716.56931725 3353.28397328 1713.34728921 3351.42301161 1710.125 3349.5625 C1709.05894531 3348.94697266 1707.99289062 3348.33144531 1706.89453125 3347.69726562 C1698.31004403 3342.74546958 1689.70419707 3337.83175132 1681.09527588 3332.92263794 C1672.05528292 3327.76583392 1663.05474679 3322.54456231 1654.07324219 3317.28662109 C1646.45094222 3312.83083656 1638.79468689 3308.43602854 1631.125 3304.0625 C1616.65049631 3295.80834364 1602.21778154 3287.48282628 1587.79101562 3279.14550781 C1584.56931725 3277.28397328 1581.34728921 3275.42301161 1578.125 3273.5625 C1577.05894531 3272.94697266 1575.99289062 3272.33144531 1574.89453125 3271.69726562 C1566.31004403 3266.74546958 1557.70419707 3261.83175132 1549.09527588 3256.92263794 C1540.05528292 3251.76583392 1531.05474679 3246.54456231 1522.07324219 3241.28662109 C1514.45094222 3236.83083656 1506.79468689 3232.43602854 1499.125 3228.0625 C1484.65049631 3219.80834364 1470.21778154 3211.48282628 1455.79101562 3203.14550781 C1452.56931725 3201.28397328 1449.34728921 3199.42301161 1446.125 3197.5625 C1445.05894531 3196.94697266 1443.99289062 3196.33144531 1442.89453125 3195.69726562 C1434.31004403 3190.74546958 1425.70419707 3185.83175132 1417.09527588 3180.92263794 C1408.05528292 3175.76583392 1399.05474679 3170.54456231 1390.07324219 3165.28662109 C1382.45094222 3160.83083656 1374.79468689 3156.43602854 1367.125 3152.0625 C1352.65049631 3143.80834364 1338.21778154 3135.48282628 1323.79101562 3127.14550781 C1320.56931725 3125.28397328 1317.34728921 3123.42301161 1314.125 3121.5625 C1313.05894531 3120.94697266 1311.99289062 3120.33144531 1310.89453125 3119.69726562 C1302.31004403 3114.74546958 1293.70419707 3109.83175132 1285.09527588 3104.92263794 C1276.05528292 3099.76583392 1267.05474679 3094.54456231 1258.07324219 3089.28662109 C1250.45094222 3084.83083656 1242.79468689 3080.43602854 1235.125 3076.0625 C1220.65049631 3067.80834364 1206.21778154 3059.48282628 1191.79101562 3051.14550781 C1188.56931725 3049.28397328 1185.34728921 3047.42301161 1182.125 3045.5625 C1181.05894531 3044.94697266 1179.99289062 3044.33144531 1178.89453125 3043.69726562 C1170.31004403 3038.74546958 1161.70419707 3033.83175132 1153.09527588 3028.92263794 C1144.05528292 3023.76583392 1135.05474679 3018.54456231 1126.07324219 3013.28662109 C1118.45094222 3008.83083656 1110.79468689 3004.43602854 1103.125 3000.0625 C1088.65049631 2991.80834364 1074.21778154 2983.48282628 1059.79101562 2975.14550781 C1056.56931729 2973.2839733 1053.3472521 2971.42307579 1050.125 2969.5625 C1049.06692139 2968.95132324 1048.00884277 2968.34014648 1046.91870117 2967.71044922 C1041.15427853 2964.3843021 1035.38166098 2961.07318416 1029.59765625 2957.78125 C1028.97739563 2957.42796127 1028.35713501 2957.07467255 1027.71807861 2956.7106781 C1024.73895558 2955.01396144 1021.75864185 2953.31946811 1018.77587891 2951.62915039 C1016.59728976 2950.38943019 1014.42366357 2949.14094325 1012.25537109 2947.88330078 C1010.0130108 2946.58604809 1007.76578799 2945.31718153 1005.49853516 2944.06591797 C998.25449418 2939.91400835 993.90981886 2936.35407885 990 2929 C988.88886832 2927.11461693 987.77544165 2925.23058519 986.66015625 2923.34765625 C985.45787894 2921.25435787 984.25880869 2919.15921513 983.0625 2917.0625 C982.07007862 2915.3326544 981.07765235 2913.60281157 980.08493042 2911.87313843 C979.06235909 2910.09060128 978.04109866 2908.30731803 977.02001953 2906.52392578 C973.86030089 2901.00810212 970.67888278 2895.50479254 967.5 2890 C966.24990125 2887.83339031 964.99990149 2885.6667235 963.75 2883.5 C963.13125 2882.4275 962.5125 2881.355 961.875 2880.25 C851.24999999 2688.49999998 851.24999999 2688.49999998 849.37475586 2685.24951172 C848.12564482 2683.08442929 846.87645871 2680.91939018 845.62719727 2678.75439453 C842.48797691 2673.31384294 839.35009437 2667.87252784 836.21484375 2662.4296875 C830.19252671 2651.97793801 824.15330663 2641.53700452 818.0625 2631.125 C812.64078822 2621.85500223 807.29795085 2612.54168248 801.98077393 2603.21154785 C796.77954871 2594.0871716 791.51972122 2584.99867226 786.21655273 2575.93310547 C780.06233258 2565.40915375 773.97630004 2554.84619863 767.89111328 2544.28222656 C764.76319852 2538.85340058 761.63141552 2533.42680719 758.5 2528 C757.24998121 2525.83334417 755.99998122 2523.6666775 754.75 2521.5 C754.13125 2520.4275 753.5125 2519.355 752.875 2518.25 C642.24999999 2326.49999998 642.24999999 2326.49999998 640.37475586 2323.24951172 C639.12564482 2321.08442929 637.87645871 2318.91939018 636.62719727 2316.75439453 C633.48797691 2311.31384294 630.35009437 2305.87252784 627.21484375 2300.4296875 C621.19252671 2289.97793801 615.15330663 2279.53700452 609.0625 2269.125 C603.64078822 2259.85500223 598.29795085 2250.54168248 592.98077393 2241.21154785 C587.77954871 2232.0871716 582.51972122 2222.99867226 577.21655273 2213.93310547 C571.06233258 2203.40915375 564.97630004 2192.84619863 558.89111328 2182.28222656 C555.76319852 2176.85340058 552.63141552 2171.42680719 549.5 2166 C548.24998121 2163.83334417 546.99998122 2161.6666775 545.75 2159.5 C545.13125 2158.4275 544.5125 2157.355 543.875 2156.25 C433.24999999 1964.49999997 433.24999999 1964.49999997 431.37475586 1961.24951172 C430.12564482 1959.08442929 428.87645871 1956.91939018 427.62719727 1954.75439453 C424.48797691 1949.31384294 421.35009437 1943.87252784 418.21484375 1938.4296875 C412.19252671 1927.97793801 406.15330663 1917.53700452 400.0625 1907.125 C394.64078822 1897.85500223 389.29795085 1888.54168248 383.98077393 1879.21154785 C378.77954871 1870.0871716 373.51972122 1860.99867226 368.21655273 1851.93310547 C362.06233258 1841.40915375 355.97630004 1830.84619863 349.89111328 1820.28222656 C346.76319852 1814.85340058 343.63141552 1809.42680719 340.5 1804 C339.24998121 1801.83334417 337.99998122 1799.6666775 336.75 1797.5 C336.13125 1796.4275 335.5125 1795.355 334.875 1794.25 C224.25 1602.49999999 224.25 1602.49999999 222.37475586 1599.24951172 C221.12564482 1597.08442929 219.87645871 1594.91939018 218.62719727 1592.75439453 C215.48797691 1587.31384294 212.35009437 1581.87252784 209.21484375 1576.4296875 C203.19252671 1565.97793801 197.15330663 1555.53700452 191.0625 1545.125 C185.64078822 1535.85500223 180.29795085 1526.54168248 174.98077393 1517.21154785 C169.77954871 1508.0871716 164.51972122 1498.99867226 159.21655273 1489.93310547 C153.06233258 1479.40915375 146.97630004 1468.84619863 140.89111328 1458.28222656 C137.76319852 1452.85340058 134.63141552 1447.42680719 131.5 1442 C130.24998121 1439.83334417 128.99998122 1437.6666775 127.75 1435.5 C127.13125 1434.4275 126.5125 1433.355 125.875 1432.25 C30.25000003 1266.50000006 30.25000003 1266.50000006 28.37402344 1263.24829102 C27.12729744 1261.08731012 25.88055273 1258.92634002 24.63378906 1256.76538086 C21.45854117 1251.26181149 18.28364505 1245.75803968 15.109375 1240.25390625 C14.46291016 1239.13306641 13.81644531 1238.01222656 13.15039062 1236.85742188 C11.94583786 1234.76895269 10.74139704 1232.68041893 9.53710938 1230.59179688 C8.97314453 1229.61404297 8.40917969 1228.63628906 7.828125 1227.62890625 C7.00292451 1226.14727104 7.00292451 1226.14727104 6.1610533 1224.6357038 C4.67120936 1222.03674522 3.03235488 1219.63225124 1.26402128 1217.21531129 C-8.20202285 1203.66282292 -8.5505498 1191.26416328 -8.28222184 1175.11047718 C-8.23462339 1171.48676633 -8.25239351 1167.86322294 -8.261392 1164.23929095 C-8.26842648 1157.89042831 -8.23498487 1151.54280825 -8.17443037 1145.19424534 C-8.08437895 1135.72153404 -8.05932001 1126.2493969 -8.0471612 1116.7763045 C-8.02487101 1100.71025706 -7.9520541 1084.64481012 -7.85142899 1068.57907867 C-7.71173674 1046.19388565 -7.63680192 1023.80879957 -7.57856821 1001.42326233 C-7.55100072 990.83723189 -7.52075829 980.25120913 -7.48989677 969.66518784 C-7.48681445 968.60249951 -7.48373213 967.53981118 -7.4805564 966.44492018 C-7.43243125 949.98693408 -7.37149234 933.5290237 -7.30317879 917.07110977 C-7.29393274 914.83534587 -7.28468969 912.59958196 -7.27544963 910.36381803 C-7.27086518 909.25490833 -7.26628074 908.14599863 -7.26155738 907.0034856 C-7.02266244 849.18010281 -6.91942051 791.35745456 -6.89682169 733.53360306 C-6.89506706 729.1145738 -6.89315316 724.69554463 -6.89124042 720.27651544 C-6.88357597 702.53220265 -6.87640474 684.78788965 -6.87044573 667.04357621 C-6.85952754 634.79746818 -6.83583051 602.5513893 -6.80145264 570.30529785 C-6.80027801 569.202231 -6.79910339 568.09916415 -6.79789317 566.96267103 C-6.78121054 551.349848 -6.76367986 535.73702595 -6.74597102 520.12420405 C-6.72580062 502.30250259 -6.70603436 484.48080066 -6.68632767 466.65909868 C-6.68261689 463.30832923 -6.67888797 459.95755979 -6.67515668 456.60679036 C-6.63559595 421.00998191 -6.60386341 385.4131706 -6.57531309 349.81635178 C-6.54431657 311.20907679 -6.50695666 272.60181353 -6.46109388 233.99455319 C-6.45465123 228.57094111 -6.44827511 223.14732894 -6.44193649 217.72371674 C-6.44068819 216.6581976 -6.43943988 215.59267846 -6.43815375 214.49487086 C-6.41845267 197.53049181 -6.40529478 180.56611407 -6.39470672 163.60172715 C-6.38404808 146.76902749 -6.36617247 129.9363478 -6.34083296 113.10366371 C-6.32607755 103.16085819 -6.31677415 93.21808324 -6.31543317 83.27526666 C-6.31399144 76.63765834 -6.30531139 70.00008449 -6.29084408 63.36249186 C-6.28282868 59.59259871 -6.27782911 55.82277313 -6.28172119 52.05287185 C-6.31732355 11.26429126 -6.31732355 11.26429126 0 0 Z " fill="#FEFEFE" transform="translate(2785,753)"/>
<path d="M0 0 C4.26007909 0.03413926 8.51957947 -0.00825708 12.77958162 -0.04026894 C20.25629679 -0.08612734 27.73179106 -0.08417884 35.20855268 -0.05031566 C46.40132252 0.00013872 57.59308164 -0.02485711 68.78585181 -0.0640382 C87.86567023 -0.12862625 106.94505307 -0.13170189 126.02493615 -0.10097701 C145.35360657 -0.07006359 164.68197365 -0.06741929 184.01064629 -0.09906776 C185.23261534 -0.10104844 186.45458438 -0.10302913 187.71358278 -0.10506983 C192.69069247 -0.11322769 197.66780177 -0.12158187 202.6449107 -0.13018616 C248.97841412 -0.21020901 295.31170778 -0.2258247 341.64524598 -0.19950873 C342.33112447 -0.19911984 343.01700296 -0.19873095 343.72366564 -0.19833027 C346.50048294 -0.19675469 349.27730024 -0.19517643 352.05411754 -0.19359627 C359.72510033 -0.18923879 367.39608318 -0.18502803 375.06706614 -0.18100006 C376.10598532 -0.18045065 376.10598532 -0.18045065 377.16589277 -0.17989014 C409.28149819 -0.16305717 441.3970738 -0.17422028 473.51267676 -0.19128527 C477.01768987 -0.19313597 480.522703 -0.194928 484.02771614 -0.19672275 C489.65357174 -0.1996096 495.27942733 -0.20251063 500.90528291 -0.20543507 C501.60292386 -0.20579772 502.30056481 -0.20616036 503.0193464 -0.206534 C507.25374731 -0.20873899 511.4881482 -0.2109709 515.72254909 -0.21321746 C547.93892995 -0.23028496 580.15531168 -0.24277783 612.37169595 -0.25124461 C613.4476377 -0.25152931 613.4476377 -0.25152931 614.54531566 -0.25181975 C660.99150838 -0.26401989 707.4376729 -0.25555515 753.88386102 -0.23267657 C755.38175234 -0.23194308 756.87964366 -0.23120983 758.37753498 -0.23047683 C774.91332626 -0.22236675 791.44911732 -0.21382754 807.98490831 -0.2051283 C808.73128806 -0.20473581 809.47766782 -0.20434332 810.24666514 -0.20393894 C817.03822238 -0.20036686 823.82977963 -0.19679459 830.62133685 -0.19318968 C905.69626117 -0.15337541 980.77104774 -0.1393757 1114.83589039 -0.25497495 C1139.65261555 -0.27844631 1164.46934088 -0.30168815 1189.28606744 -0.32363421 C1190.02699346 -0.32429124 1190.76791949 -0.32494827 1191.53129782 -0.3256252 C1237.94791313 -0.36673923 1284.36450129 -0.3883115 1330.78113503 -0.38770396 C1331.49823008 -0.38769648 1332.21532513 -0.38768901 1332.95415033 -0.3876813 C1365.15649204 -0.38729887 1397.35883132 -0.38177128 1429.56117133 -0.37145099 C1440.82472605 -0.36785226 1452.08828086 -0.36458226 1463.3518357 -0.36140769 C1466.15388008 -0.3606161 1468.95592446 -0.35979642 1471.75796883 -0.35895386 C1503.87219386 -0.34935966 1535.98636077 -0.35070075 1568.10057063 -0.38638718 C1569.13847741 -0.38753728 1569.13847741 -0.38753728 1570.19735201 -0.38871062 C1581.32698247 -0.40108932 1592.45661199 -0.41427245 1603.58624152 -0.42746318 C1650.48454889 -0.48295049 1697.38250075 -0.47982864 1744.28081765 -0.40566741 C1749.24539048 -0.3980456 1754.20996363 -0.39067819 1759.17453713 -0.38351066 C1760.39291128 -0.38172833 1761.61128543 -0.379946 1762.86658001 -0.37810966 C1782.1385661 -0.35135355 1801.41008818 -0.37809396 1820.68201456 -0.42721428 C1839.64410356 -0.47440821 1858.60545007 -0.46421933 1877.56747345 -0.39349699 C1888.67623383 -0.35375589 1899.78290053 -0.35725636 1910.89153167 -0.42591331 C1918.28333058 -0.46718431 1925.67353613 -0.44971328 1933.06516971 -0.38589643 C1937.24738548 -0.35138829 1941.4254756 -0.34038593 1945.60747021 -0.40231367 C1967.70755224 -0.70728905 1982.03405209 3.03924953 2000.44383705 15.62699865 C2005.3527731 18.91315588 2010.4833308 21.80049973 2015.6117949 24.72652619 C2017.57658563 25.87282543 2019.54027887 27.0210098 2021.5024199 28.17183869 C2027.77577279 31.83784221 2034.06686398 35.47272791 2040.3617949 39.10152619 C2041.44074021 39.72349885 2042.51968552 40.34547151 2043.63132615 40.98629182 C2046.91622482 42.87931745 2050.20144593 44.77178217 2053.4867949 46.66402619 C2067.16233804 54.54065208 2080.82640447 62.43522711 2094.45261521 70.39693635 C2106.10338675 77.19990242 2117.79583234 83.93044806 2129.4867949 90.66402619 C2143.16233804 98.54065208 2156.82640447 106.43522711 2170.45261521 114.39693635 C2182.10338675 121.19990242 2193.79583234 127.93044806 2205.4867949 134.66402619 C2219.16233804 142.54065208 2232.82640447 150.43522711 2246.45261521 158.39693635 C2258.10338675 165.19990242 2269.79583234 171.93044806 2281.4867949 178.66402619 C2295.16233804 186.54065208 2308.82640447 194.43522711 2322.45261521 202.39693635 C2333.01299772 208.56321673 2343.60806256 214.66898569 2354.20456834 220.77291291 C2360.71550747 224.52430643 2367.22342684 228.28093614 2373.73191209 232.03658479 C2379.17264826 235.17584865 2384.61410967 238.31384116 2390.0571074 241.44918244 C2401.5412831 248.06625511 2413.00876384 254.71036596 2424.45261521 261.39693635 C2436.10338675 268.19990242 2447.79583234 274.93044806 2459.4867949 281.66402619 C2473.16233804 289.54065208 2486.82640447 297.43522711 2500.45261521 305.39693635 C2512.10338675 312.19990242 2523.79583234 318.93044806 2535.4867949 325.66402619 C2549.16233804 333.54065208 2562.82640447 341.43522711 2576.45261521 349.39693635 C2588.10338675 356.19990242 2599.79583234 362.93044806 2611.4867949 369.66402619 C2625.16233804 377.54065208 2638.82640447 385.43522711 2652.45261521 393.39693635 C2664.10338675 400.19990242 2675.79583234 406.93044806 2687.4867949 413.66402619 C2701.16233804 421.54065208 2714.82640447 429.43522711 2728.45261521 437.39693635 C2740.10338675 444.19990242 2751.79583234 450.93044806 2763.4867949 457.66402619 C2777.16233804 465.54065208 2790.82640447 473.43522711 2804.45261521 481.39693635 C2816.10338675 488.19990242 2827.79583234 494.93044806 2839.4867949 501.66402619 C2853.16233804 509.54065208 2866.82640447 517.43522711 2880.45261521 525.39693635 C2892.10338675 532.19990242 2903.79583234 538.93044806 2915.4867949 545.66402619 C2929.15493065 553.53638568 2942.82031823 561.41233243 2956.42844529 569.38814729 C2961.67779966 572.46062336 2966.94440065 575.49731286 2972.24070115 578.48824494 C2992.01120325 589.68000079 2992.01120325 589.68000079 3000.2992949 595.66402619 C3001.15986497 596.27637116 3001.15986497 596.27637116 3002.03782029 596.90108674 C3005.83947449 599.76499569 3009.52199182 603.25754404 3011.4867949 607.66402619 C3011.1574542 610.23446873 3010.98064584 611.27608842 3008.92038865 612.89449494 C3008.26167771 613.21031526 3007.60296677 613.52613557 3006.9242949 613.85152619 C3006.28363084 614.17508088 3005.64296677 614.49863557 3004.98288865 614.83199494 C2997.89914283 617.19324355 2990.23140833 616.8058719 2982.85567911 616.7896427 C2981.69262928 616.79107428 2980.52957945 616.79250587 2979.33128568 616.79398084 C2976.0991535 616.79694481 2972.86705908 616.79543122 2969.63492846 616.79203996 C2966.10240288 616.78944442 2962.56988173 616.7926748 2959.03735673 616.79515193 C2952.81200896 616.79871218 2946.58666984 616.79853906 2940.36132172 616.79596543 C2931.01461879 616.79212223 2921.66792311 616.79406729 2912.32122021 616.79713046 C2896.32054772 616.80220423 2880.31987824 616.80250445 2864.31920525 616.80026694 C2848.00856716 616.7980056 2831.69793122 616.7979322 2815.38729316 616.80049965 C2814.35432449 616.80066084 2813.32135583 616.80082203 2812.25708508 616.80098811 C2806.98315948 616.8018206 2801.70923388 616.80268747 2796.43530828 616.80356564 C2757.8773945 616.80990839 2719.31948176 616.81127715 2680.76156754 616.81014817 C2641.6668546 616.80901706 2602.57214261 616.81004501 2563.47742982 616.81372064 C2560.986697 616.81395263 2558.49596418 616.8141846 2556.00523136 616.81441655 C2545.96292486 616.81535606 2535.92061836 616.81631236 2525.87831186 616.81728775 C2497.56749622 616.82003345 2469.25668056 616.82241275 2440.94586487 616.82453971 C2438.99965663 616.82468604 2438.99965663 616.82468604 2437.01413105 616.82483532 C2363.18004535 616.83034384 2289.3459596 616.83064501 2215.51187373 616.83105618 C2204.22334913 616.83111942 2192.93482452 616.83118595 2181.64629991 616.83125673 C2178.81701167 616.83127443 2175.98772343 616.8312918 2173.15843518 616.83130885 C2109.6953464 616.83169643 2046.23225773 616.83387424 1982.76916901 616.83643911 C1968.61090262 616.83701066 1954.45263624 616.83756463 1940.29436985 616.83811974 C1938.18631135 616.83820242 1938.18631135 616.83820242 1936.03566581 616.83828678 C1927.50489475 616.83862128 1918.97412369 616.83895504 1910.44335263 616.83928834 C1906.16996656 616.83945542 1901.89658049 616.83962293 1897.62319442 616.83979048 C1831.1768789 616.84239248 1764.73056337 616.84462274 1698.28424783 616.84647267 C1696.83641425 616.84651304 1695.38858067 616.84655341 1693.89687335 616.84659501 C1601.62073729 616.84915855 1509.34460129 616.85005746 1417.0684652 616.84979467 C1412.53017054 616.84978192 1407.99187589 616.84976996 1403.45358124 616.84975826 C1371.56926486 616.84967592 1339.68494849 616.84957321 1307.80063211 616.84946538 C1298.65846068 616.84943461 1289.51628925 616.84940455 1280.37411783 616.84937457 C1272.74834818 616.84934948 1265.12257852 616.84932369 1257.49680887 616.84929646 C1113.44850804 616.84878497 969.40020777 616.85020417 825.3519072 616.85964387 C823.07679584 616.85979291 823.07679584 616.85979291 820.75572263 616.85994496 C773.36546155 616.86305631 725.97520049 616.8664228 678.58493943 616.86983674 C629.95995533 616.87333807 581.33497123 616.87680849 532.70998711 616.88010114 C530.46429003 616.88025343 530.46429003 616.88025343 528.17322532 616.88040879 C434.43645965 616.8867563 340.69969413 616.89067949 246.96292825 616.89195912 C245.51555751 616.89197915 244.06818678 616.89199918 242.57695633 616.89201981 C179.01706112 616.89289507 115.45716593 616.89321493 51.89727072 616.89292893 C26.32833457 616.89281464 0.75939842 616.89275858 -24.80953773 616.89272561 C-29.04908774 616.89271921 -33.28863775 616.89271013 -37.52818776 616.89270046 C-102.40594827 616.8925639 -167.28370828 616.89391356 -232.16146856 616.89974564 C-233.56144549 616.89987131 -234.96142243 616.89999698 -236.40382291 616.90012646 C-258.92547399 616.90215559 -281.44712507 616.90429958 -303.96877614 616.90645327 C-367.87839381 616.91255978 -431.78801079 616.91760759 -495.69762879 616.9154821 C-496.99349212 616.91543938 -498.28935546 616.91539667 -499.62448738 616.91535266 C-527.89109383 616.91439946 -556.15770023 616.91288383 -584.42430662 616.91081595 C-595.69655037 616.90999958 -606.96879413 616.90925597 -618.24103789 616.90853494 C-619.47067301 616.90845428 -620.70030813 616.90837363 -621.96720491 616.90829054 C-661.01372484 616.90576388 -700.06024096 616.90939125 -739.10676023 616.91655276 C-777.53370785 616.9235747 -815.96065016 616.92455834 -854.38759779 616.91666582 C-859.64384218 616.91558709 -864.90008659 616.91457824 -870.15633101 616.91361126 C-871.18539471 616.91341925 -872.21445842 616.91322723 -873.27470588 616.91302939 C-889.53630035 616.91017769 -905.79788602 616.91402033 -922.05947909 616.92069187 C-937.94835534 616.92707475 -953.83721802 616.92642202 -969.72609353 616.91809799 C-979.00683294 616.91344928 -988.28753289 616.91427786 -997.56826941 616.92319203 C-1003.70942058 616.92854959 -1009.85054185 616.92671301 -1015.99169036 616.91892135 C-1019.47087285 616.91471018 -1022.94997705 616.91361629 -1026.42915515 616.92140112 C-1030.16344425 616.92808693 -1033.89752125 616.92252071 -1037.63180165 616.91384119 C-1038.70094985 616.91871319 -1039.77009805 616.92358518 -1040.87164468 616.92860481 C-1049.17047382 616.88848075 -1058.47468607 616.53684706 -1065.5132051 611.66402619 C-1066.35304885 609.32027619 -1066.35304885 609.32027619 -1066.5132051 606.66402619 C-1058.4166492 591.51109691 -1035.30461944 582.84793054 -1020.99547439 574.76737397 C-1014.73043547 571.22754792 -1008.49421742 567.63838257 -1002.2632051 564.03902619 C-1001.19416946 563.42196809 -1000.12513381 562.80490998 -999.02370315 562.16915315 C-990.85066757 557.44713419 -982.6967885 552.69268945 -974.54689651 547.9308719 C-961.80314371 540.48953124 -949.00997459 533.13382726 -936.22218948 525.76851838 C-924.63638744 519.09446308 -913.05767157 512.40938535 -901.5132051 505.66402619 C-887.78265322 497.64135108 -874.00242544 489.70544361 -860.22218948 481.76851838 C-848.63638744 475.09446308 -837.05767157 468.40938535 -825.5132051 461.66402619 C-811.78265322 453.64135108 -798.00242544 445.70544361 -784.22218948 437.76851838 C-772.63638744 431.09446308 -761.05767157 424.40938535 -749.5132051 417.66402619 C-735.78265322 409.64135108 -722.00242544 401.70544361 -708.22218948 393.76851838 C-696.63638744 387.09446308 -685.05767157 380.40938535 -673.5132051 373.66402619 C-659.78265322 365.64135108 -646.00242544 357.70544361 -632.22218948 349.76851838 C-620.63638744 343.09446308 -609.05767157 336.40938535 -597.5132051 329.66402619 C-583.78265322 321.64135108 -570.00242544 313.70544361 -556.22218948 305.76851838 C-544.63638744 299.09446308 -533.05767157 292.40938535 -521.5132051 285.66402619 C-507.78265322 277.64135108 -494.00242544 269.70544361 -480.22218948 261.76851838 C-468.63638744 255.09446308 -457.05767157 248.40938535 -445.5132051 241.66402619 C-431.78265322 233.64135108 -418.00242544 225.70544361 -404.22218948 217.76851838 C-392.63638744 211.09446308 -381.05767157 204.40938535 -369.5132051 197.66402619 C-355.78265322 189.64135108 -342.00242544 181.70544361 -328.22218948 173.76851838 C-316.63638744 167.09446308 -305.05767157 160.40938535 -293.5132051 153.66402619 C-279.78265322 145.64135108 -266.00242544 137.70544361 -252.22218948 129.76851838 C-240.63638744 123.09446308 -229.05767157 116.40938535 -217.5132051 109.66402619 C-203.78265322 101.64135108 -190.00242544 93.70544361 -176.22218948 85.76851838 C-164.63638744 79.09446308 -153.05767157 72.40938535 -141.5132051 65.66402619 C-127.78265322 57.64135108 -114.00242544 49.70544361 -100.22218948 41.76851838 C-88.5559267 35.04811329 -76.89499207 28.31897504 -65.2632051 21.53902619 C-64.40323928 21.03814485 -63.54327346 20.5372635 -62.65724807 20.02120393 C-61.34071243 19.25272126 -61.34071243 19.25272126 -59.9975801 18.46871369 C-59.06424314 17.9457675 -58.13090619 17.42282131 -57.16928629 16.88402826 C-54.38324376 15.26327937 -51.84022637 13.43875357 -49.2618252 11.50653262 C-33.542441 0.29423741 -18.54872563 -0.21279325 0 0 Z " fill="#FEFEFE" transform="translate(1734.5132051007822,3818.3359738066792)"/>
</svg>
